<svg xmlns="http://www.w3.org/2000/svg" width="256" height="256" viewBox="0 0 256 256">
<defs>
  <clipPath id="sun-clip">
    <circle cx="128.00" cy="128.00" r="108.29"/>
  </clipPath>
  <mask id="sun-hole-mask">
    <rect width="256" height="256" fill="white"/>
    <path d="M 178.11 104.96 L 177.97 105.81 L 177.81 106.64 L 177.64 107.47 L 177.46 108.30 L 177.27 109.11 L 177.08 109.93 L 176.88 110.74 L 176.68 111.54 L 176.48 112.35 L 176.27 113.16 L 176.05 113.96 L 175.81 114.77 L 175.56 115.57 L 175.29 116.37 L 174.99 117.17 L 174.67 117.95 L 174.32 118.73 L 173.94 119.49 L 173.52 120.24 L 173.07 120.96 L 172.58 121.67 L 172.05 122.34 L 171.49 122.99 L 170.89 123.60 L 170.26 124.18 L 169.60 124.72 L 168.91 125.23 L 168.20 125.70 L 167.47 126.15 L 166.73 126.56 L 165.98 126.94 L 165.22 127.30 L 164.46 127.65 L 163.69 127.97 L 162.93 128.29 L 162.16 128.59 L 161.40 128.89 L 160.63 129.18 L 159.86 129.47 L 159.10 129.76 L 158.33 130.04 L 157.55 130.32 L 156.77 130.59 L 155.98 130.85 L 155.18 131.09 L 154.37 131.32 L 153.55 131.53 L 152.72 131.72 L 151.89 131.89 L 151.04 132.03 L 150.19 132.15 L 149.32 132.23 L 148.46 132.29 L 147.58 132.32 L 146.71 132.31 L 145.83 132.27 L 144.95 132.19 L 144.08 132.07 L 143.21 131.92 L 142.34 131.73 L 141.49 131.50 L 140.64 131.23 L 139.80 130.93 L 138.98 130.59 L 138.17 130.22 L 137.38 129.81 L 136.60 129.38 L 135.84 128.92 L 135.09 128.43 L 134.37 127.91 L 133.66 127.37 L 132.97 126.80 L 132.31 126.21 L 131.66 125.59 L 131.04 124.96 L 130.45 124.30 L 129.88 123.62 L 129.33 122.92 L 128.81 122.20 L 128.32 121.47 L 127.86 120.72 L 127.42 119.95 L 127.02 119.17 L 126.64 118.37 L 126.29 117.57 L 125.97 116.76 L 125.68 115.93 L 125.42 115.10 L 125.19 114.27 L 124.98 113.43 L 124.79 112.59 L 124.63 111.74 L 124.48 110.90 L 124.36 110.05 L 124.25 109.20 L 124.16 108.36 L 124.08 107.51 L 124.02 106.66 L 123.98 105.81 L 123.97 104.96 L 123.98 104.11 L 124.04 103.26 L 124.13 102.42 L 124.27 101.58 L 124.45 100.75 L 124.68 99.93 L 124.94 99.13 L 125.24 98.34 L 125.58 97.56 L 125.95 96.81 L 126.34 96.07 L 126.75 95.34 L 127.18 94.64 L 127.63 93.94 L 128.08 93.26 L 128.55 92.59 L 129.02 91.94 L 129.49 91.28 L 129.96 90.63 L 130.43 89.99 L 130.91 89.35 L 131.39 88.70 L 131.86 88.05 L 132.35 87.41 L 132.84 86.76 L 133.34 86.11 L 133.85 85.46 L 134.37 84.81 L 134.91 84.17 L 135.48 83.54 L 136.06 82.92 L 136.67 82.32 L 137.30 81.73 L 137.96 81.18 L 138.65 80.65 L 139.37 80.15 L 140.11 79.70 L 140.87 79.28 L 141.66 78.91 L 142.47 78.58 L 143.29 78.30 L 144.13 78.06 L 144.99 77.88 L 145.85 77.75 L 146.72 77.67 L 147.59 77.63 L 148.46 77.64 L 149.32 77.69 L 150.19 77.77 L 151.04 77.89 L 151.89 78.03 L 152.72 78.19 L 153.55 78.37 L 154.37 78.57 L 155.19 78.78 L 155.99 79.01 L 156.78 79.26 L 157.57 79.52 L 158.35 79.79 L 159.12 80.08 L 159.89 80.38 L 160.65 80.69 L 161.40 81.02 L 162.14 81.37 L 162.87 81.74 L 163.59 82.13 L 164.30 82.53 L 165.00 82.96 L 165.69 83.40 L 166.37 83.86 L 167.04 84.34 L 167.69 84.83 L 168.33 85.34 L 168.97 85.87 L 169.59 86.41 L 170.21 86.96 L 170.82 87.52 L 171.42 88.10 L 172.01 88.69 L 172.59 89.30 L 173.16 89.93 L 173.71 90.57 L 174.25 91.23 L 174.77 91.91 L 175.27 92.62 L 175.74 93.34 L 176.18 94.08 L 176.59 94.84 L 176.96 95.63 L 177.30 96.43 L 177.59 97.25 L 177.84 98.08 L 178.04 98.93 L 178.19 99.78 L 178.29 100.64 L 178.34 101.51 L 178.34 102.38 L 178.30 103.24 L 178.22 104.11 L 178.11 104.96 Z" fill="black"/>
  </mask>
</defs>
<defs>
  <linearGradient id="sun-grad" x1="12.799999999999997" y1="128.0" x2="243.2" y2="128.0" gradientUnits="userSpaceOnUse">
    <stop offset="0%" stop-color="#abeaff"/>
    <stop offset="100%" stop-color="#e8eaeb"/>
  </linearGradient>
</defs>
<g mask="url(#sun-hole-mask)">
<circle cx="128.00" cy="128.00" r="115.20" fill="none" stroke="url(#sun-grad)" stroke-width="2.0"/>
<g clip-path="url(#sun-clip)">
  <circle cx="128.00" cy="128.00" r="108.29" fill="#abeaff"/>
  <path d="M 225.09 125.70 L 224.12 128.64 L 223.01 131.53 L 221.76 134.34 L 220.36 137.07 L 218.81 139.71 L 217.15 142.26 L 215.41 144.72 L 213.61 147.09 L 211.80 149.37 L 210.01 151.59 L 208.26 153.76 L 206.59 155.90 L 205.02 158.03 L 203.55 160.16 L 202.21 162.33 L 200.98 164.55 L 199.87 166.84 L 198.86 169.21 L 197.94 171.66 L 197.08 174.21 L 196.24 176.85 L 195.42 179.56 L 194.57 182.35 L 193.66 185.19 L 192.67 188.06 L 191.57 190.94 L 190.35 193.80 L 188.98 196.62 L 187.45 199.37 L 185.77 202.03 L 183.92 204.59 L 181.92 207.03 L 179.76 209.33 L 177.46 211.48 L 175.03 213.48 L 172.48 215.33 L 169.82 217.02 L 167.07 218.55 L 164.23 219.93 L 161.32 221.15 L 158.35 222.23 L 155.33 223.16 L 152.27 223.95 L 149.17 224.61 L 146.06 225.15 L 142.92 225.57 L 139.78 225.89 L 136.62 226.11 L 133.46 226.23 L 130.30 226.28 L 127.14 226.25 L 123.98 226.15 L 120.82 225.98 L 117.67 225.73 L 114.51 225.40 L 111.37 224.98 L 108.23 224.46 L 105.10 223.84 L 102.00 223.11 L 98.93 222.25 L 95.90 221.27 L 92.91 220.15 L 89.97 218.90 L 87.10 217.52 L 84.29 216.00 L 81.56 214.36 L 78.91 212.60 L 76.34 210.73 L 73.84 208.78 L 71.42 206.74 L 69.07 204.64 L 66.78 202.48 L 64.54 200.29 L 62.34 198.07 L 60.18 195.82 L 58.03 193.56 L 55.91 191.28 L 53.80 188.99 L 51.70 186.67 L 49.61 184.32 L 47.55 181.94 L 45.51 179.51 L 43.52 177.02 L 41.60 174.46 L 39.75 171.83 L 38.01 169.13 L 36.40 166.33 L 34.93 163.46 L 33.63 160.50 L 32.52 157.47 L 31.61 154.37 L 30.92 151.21 L 30.45 148.02 L 30.22 144.79 L 30.21 141.55 L 30.43 138.31 L 30.85 135.10 L 31.45 131.92 L 32.20 128.78 L 33.07 125.70 L 34.01 122.67 L 34.96 119.70 L 35.88 116.77 L 36.76 113.88 L 37.56 111.01 L 38.29 108.14 L 38.94 105.27 L 39.54 102.39 L 40.10 99.49 L 40.64 96.56 L 41.20 93.62 L 41.80 90.66 L 42.48 87.69 L 43.26 84.74 L 44.16 81.80 L 45.20 78.91 L 46.40 76.08 L 47.76 73.31 L 49.29 70.64 L 50.97 68.05 L 52.79 65.57 L 54.75 63.19 L 56.83 60.92 L 59.00 58.74 L 61.25 56.64 L 63.56 54.62 L 65.92 52.67 L 68.31 50.76 L 70.73 48.90 L 73.18 47.07 L 75.64 45.26 L 78.13 43.48 L 80.65 41.73 L 83.20 40.02 L 85.80 38.35 L 88.44 36.74 L 91.15 35.21 L 93.92 33.79 L 96.75 32.49 L 99.65 31.34 L 102.61 30.36 L 105.63 29.58 L 108.69 29.01 L 111.79 28.66 L 114.92 28.55 L 118.05 28.66 L 121.16 29.00 L 124.25 29.55 L 127.31 30.27 L 130.30 31.14 L 133.25 32.10 L 136.13 33.14 L 138.95 34.23 L 141.72 35.36 L 144.43 36.51 L 147.10 37.66 L 149.73 38.80 L 152.33 39.92 L 154.91 41.01 L 157.47 42.08 L 160.03 43.13 L 162.59 44.16 L 165.14 45.18 L 167.71 46.21 L 170.27 47.26 L 172.84 48.32 L 175.41 49.43 L 177.98 50.57 L 180.54 51.77 L 183.10 53.03 L 185.65 54.35 L 188.18 55.74 L 190.70 57.20 L 193.19 58.73 L 195.66 60.34 L 198.10 62.03 L 200.50 63.81 L 202.87 65.66 L 205.19 67.61 L 207.46 69.64 L 209.68 71.75 L 211.82 73.96 L 213.89 76.26 L 215.87 78.66 L 217.75 81.14 L 219.51 83.72 L 221.15 86.38 L 222.64 89.14 L 223.97 91.97 L 225.12 94.89 L 226.08 97.87 L 226.83 100.91 L 227.36 104.00 L 227.67 107.12 L 227.75 110.26 L 227.60 113.40 L 227.24 116.53 L 226.68 119.63 L 225.95 122.69 L 225.09 125.70 Z" fill="#b1eafc"/>
  <path d="M 215.55 123.39 L 214.68 125.97 L 213.70 128.49 L 212.59 130.95 L 211.35 133.34 L 209.99 135.65 L 208.52 137.87 L 206.97 140.01 L 205.38 142.08 L 203.77 144.07 L 202.17 145.99 L 200.61 147.87 L 199.11 149.72 L 197.69 151.56 L 196.37 153.40 L 195.15 155.26 L 194.04 157.17 L 193.04 159.13 L 192.13 161.16 L 191.30 163.28 L 190.53 165.48 L 189.81 167.76 L 189.10 170.13 L 188.39 172.57 L 187.64 175.07 L 186.83 177.62 L 185.95 180.19 L 184.96 182.78 L 183.87 185.35 L 182.65 187.90 L 181.29 190.40 L 179.80 192.83 L 178.17 195.19 L 176.41 197.45 L 174.51 199.61 L 172.49 201.66 L 170.34 203.59 L 168.09 205.38 L 165.73 207.05 L 163.27 208.57 L 160.73 209.95 L 158.12 211.19 L 155.43 212.28 L 152.69 213.22 L 149.90 214.02 L 147.07 214.68 L 144.21 215.20 L 141.32 215.59 L 138.43 215.87 L 135.52 216.04 L 132.61 216.12 L 129.69 216.14 L 126.78 216.08 L 123.86 215.94 L 120.94 215.72 L 118.03 215.42 L 115.13 215.02 L 112.24 214.51 L 109.37 213.90 L 106.52 213.17 L 103.71 212.33 L 100.94 211.35 L 98.22 210.25 L 95.55 209.02 L 92.95 207.67 L 90.42 206.19 L 87.96 204.60 L 85.58 202.91 L 83.28 201.12 L 81.06 199.24 L 78.91 197.30 L 76.83 195.30 L 74.81 193.26 L 72.85 191.17 L 70.94 189.07 L 69.06 186.94 L 67.22 184.80 L 65.41 182.64 L 63.62 180.47 L 61.85 178.28 L 60.11 176.07 L 58.40 173.83 L 56.72 171.55 L 55.10 169.23 L 53.54 166.86 L 52.06 164.44 L 50.66 161.95 L 49.38 159.41 L 48.23 156.80 L 47.22 154.13 L 46.36 151.41 L 45.68 148.65 L 45.16 145.84 L 44.83 143.01 L 44.69 140.16 L 44.72 137.31 L 44.93 134.47 L 45.30 131.65 L 45.81 128.85 L 46.45 126.10 L 47.18 123.39 L 47.97 120.73 L 48.79 118.12 L 49.58 115.54 L 50.34 113.00 L 51.03 110.47 L 51.67 107.95 L 52.25 105.43 L 52.78 102.90 L 53.29 100.35 L 53.77 97.78 L 54.28 95.19 L 54.82 92.59 L 55.42 89.99 L 56.10 87.39 L 56.90 84.81 L 57.81 82.27 L 58.85 79.77 L 60.03 77.34 L 61.36 74.97 L 62.82 72.69 L 64.41 70.49 L 66.11 68.38 L 67.93 66.37 L 69.83 64.44 L 71.81 62.59 L 73.85 60.82 L 75.93 59.11 L 78.06 57.45 L 80.21 55.84 L 82.39 54.27 L 84.59 52.74 L 86.82 51.24 L 89.07 49.77 L 91.35 48.34 L 93.67 46.96 L 96.02 45.65 L 98.43 44.41 L 100.88 43.26 L 103.38 42.22 L 105.94 41.31 L 108.54 40.54 L 111.18 39.95 L 113.86 39.52 L 116.56 39.29 L 119.28 39.25 L 122.00 39.40 L 124.70 39.73 L 127.38 40.24 L 130.02 40.89 L 132.61 41.66 L 135.15 42.51 L 137.64 43.42 L 140.08 44.35 L 142.47 45.30 L 144.83 46.23 L 147.16 47.13 L 149.46 47.99 L 151.76 48.80 L 154.06 49.56 L 156.36 50.28 L 158.68 50.97 L 161.02 51.62 L 163.39 52.26 L 165.77 52.91 L 168.18 53.57 L 170.61 54.27 L 173.04 55.02 L 175.49 55.82 L 177.93 56.70 L 180.36 57.66 L 182.78 58.71 L 185.17 59.86 L 187.52 61.10 L 189.84 62.45 L 192.11 63.89 L 194.32 65.44 L 196.47 67.09 L 198.56 68.83 L 200.57 70.67 L 202.51 72.61 L 204.36 74.63 L 206.13 76.73 L 207.81 78.92 L 209.39 81.18 L 210.87 83.51 L 212.24 85.92 L 213.48 88.39 L 214.60 90.93 L 215.58 93.52 L 216.42 96.16 L 217.09 98.85 L 217.60 101.57 L 217.93 104.32 L 218.09 107.09 L 218.06 109.86 L 217.86 112.62 L 217.50 115.37 L 216.97 118.08 L 216.32 120.76 L 215.55 123.39 Z" fill="#b8eafa"/>
  <path d="M 207.60 121.09 L 206.84 123.35 L 205.99 125.56 L 205.03 127.72 L 203.95 129.81 L 202.76 131.83 L 201.49 133.79 L 200.14 135.67 L 198.75 137.48 L 197.34 139.22 L 195.92 140.91 L 194.53 142.55 L 193.19 144.16 L 191.91 145.75 L 190.69 147.34 L 189.56 148.93 L 188.52 150.56 L 187.56 152.22 L 186.68 153.94 L 185.87 155.72 L 185.12 157.56 L 184.41 159.48 L 183.72 161.47 L 183.04 163.52 L 182.35 165.64 L 181.62 167.80 L 180.85 170.01 L 180.01 172.24 L 179.09 174.49 L 178.07 176.73 L 176.96 178.97 L 175.75 181.18 L 174.42 183.35 L 172.99 185.47 L 171.44 187.53 L 169.78 189.52 L 168.01 191.43 L 166.14 193.24 L 164.16 194.95 L 162.08 196.55 L 159.91 198.03 L 157.66 199.38 L 155.32 200.58 L 152.92 201.65 L 150.45 202.56 L 147.94 203.33 L 145.38 203.96 L 142.79 204.44 L 140.18 204.80 L 137.55 205.04 L 134.91 205.20 L 132.27 205.28 L 129.61 205.29 L 126.96 205.21 L 124.31 205.05 L 121.66 204.78 L 119.02 204.41 L 116.40 203.92 L 113.80 203.32 L 111.23 202.59 L 108.71 201.74 L 106.23 200.76 L 103.81 199.65 L 101.44 198.43 L 99.15 197.08 L 96.93 195.63 L 94.79 194.08 L 92.72 192.43 L 90.73 190.71 L 88.81 188.92 L 86.97 187.07 L 85.20 185.18 L 83.49 183.25 L 81.83 181.29 L 80.23 179.32 L 78.67 177.33 L 77.15 175.33 L 75.66 173.33 L 74.20 171.31 L 72.78 169.29 L 71.38 167.24 L 70.03 165.18 L 68.71 163.10 L 67.45 160.99 L 66.24 158.84 L 65.11 156.65 L 64.06 154.43 L 63.10 152.17 L 62.24 149.86 L 61.50 147.52 L 60.88 145.14 L 60.40 142.74 L 60.04 140.31 L 59.82 137.87 L 59.74 135.43 L 59.79 132.99 L 59.96 130.56 L 60.25 128.15 L 60.65 125.76 L 61.14 123.41 L 61.71 121.09 L 62.33 118.81 L 62.97 116.56 L 63.62 114.35 L 64.24 112.16 L 64.83 109.99 L 65.38 107.82 L 65.89 105.66 L 66.38 103.49 L 66.84 101.31 L 67.29 99.12 L 67.76 96.91 L 68.26 94.70 L 68.80 92.48 L 69.41 90.27 L 70.10 88.07 L 70.89 85.89 L 71.77 83.75 L 72.77 81.65 L 73.87 79.60 L 75.08 77.62 L 76.40 75.70 L 77.82 73.86 L 79.32 72.08 L 80.90 70.37 L 82.55 68.73 L 84.26 67.15 L 86.01 65.62 L 87.81 64.15 L 89.63 62.72 L 91.49 61.33 L 93.38 59.98 L 95.30 58.67 L 97.24 57.40 L 99.22 56.17 L 101.24 55.00 L 103.29 53.89 L 105.38 52.85 L 107.52 51.91 L 109.70 51.06 L 111.92 50.33 L 114.18 49.72 L 116.47 49.26 L 118.79 48.95 L 121.12 48.79 L 123.46 48.80 L 125.80 48.96 L 128.12 49.28 L 130.42 49.74 L 132.69 50.32 L 134.91 51.00 L 137.09 51.74 L 139.23 52.52 L 141.32 53.31 L 143.38 54.08 L 145.41 54.82 L 147.42 55.51 L 149.43 56.14 L 151.44 56.70 L 153.47 57.20 L 155.52 57.65 L 157.61 58.05 L 159.72 58.42 L 161.88 58.77 L 164.07 59.13 L 166.29 59.51 L 168.53 59.93 L 170.80 60.41 L 173.07 60.96 L 175.35 61.59 L 177.61 62.32 L 179.85 63.15 L 182.07 64.09 L 184.24 65.14 L 186.36 66.31 L 188.42 67.58 L 190.41 68.97 L 192.33 70.47 L 194.17 72.07 L 195.92 73.76 L 197.59 75.55 L 199.17 77.42 L 200.66 79.37 L 202.05 81.38 L 203.34 83.47 L 204.53 85.62 L 205.62 87.82 L 206.60 90.07 L 207.46 92.36 L 208.21 94.70 L 208.83 97.07 L 209.32 99.47 L 209.67 101.89 L 209.89 104.33 L 209.96 106.77 L 209.88 109.21 L 209.67 111.64 L 209.33 114.05 L 208.86 116.44 L 208.27 118.78 L 207.60 121.09 Z" fill="#bfeaf8"/>
  <path d="M 200.58 118.78 L 199.93 120.75 L 199.20 122.68 L 198.39 124.57 L 197.48 126.40 L 196.48 128.17 L 195.41 129.89 L 194.28 131.54 L 193.11 133.14 L 191.92 134.68 L 190.71 136.17 L 189.52 137.61 L 188.35 139.03 L 187.21 140.42 L 186.12 141.80 L 185.08 143.17 L 184.11 144.56 L 183.18 145.97 L 182.32 147.41 L 181.51 148.88 L 180.73 150.40 L 180.00 151.97 L 179.28 153.58 L 178.58 155.25 L 177.87 156.96 L 177.15 158.71 L 176.40 160.51 L 175.61 162.33 L 174.77 164.17 L 173.87 166.04 L 172.91 167.91 L 171.87 169.78 L 170.76 171.64 L 169.57 173.49 L 168.29 175.31 L 166.93 177.09 L 165.47 178.83 L 163.93 180.52 L 162.30 182.14 L 160.58 183.68 L 158.77 185.12 L 156.88 186.46 L 154.91 187.69 L 152.86 188.78 L 150.75 189.75 L 148.59 190.57 L 146.37 191.26 L 144.12 191.82 L 141.84 192.24 L 139.53 192.56 L 137.22 192.79 L 134.89 192.95 L 132.54 193.04 L 130.20 193.04 L 127.85 192.95 L 125.50 192.74 L 123.17 192.42 L 120.85 191.98 L 118.57 191.42 L 116.32 190.72 L 114.11 189.90 L 111.95 188.95 L 109.86 187.89 L 107.82 186.70 L 105.86 185.42 L 103.97 184.04 L 102.15 182.57 L 100.41 181.02 L 98.74 179.42 L 97.14 177.75 L 95.61 176.05 L 94.14 174.31 L 92.73 172.55 L 91.38 170.77 L 90.07 168.98 L 88.81 167.19 L 87.59 165.39 L 86.41 163.58 L 85.26 161.77 L 84.14 159.95 L 83.06 158.13 L 82.02 156.29 L 81.02 154.44 L 80.08 152.58 L 79.18 150.69 L 78.35 148.78 L 77.59 146.84 L 76.91 144.88 L 76.31 142.90 L 75.79 140.90 L 75.37 138.88 L 75.04 136.85 L 74.81 134.81 L 74.66 132.77 L 74.61 130.73 L 74.65 128.69 L 74.77 126.67 L 74.97 124.67 L 75.23 122.68 L 75.57 120.72 L 75.96 118.78 L 76.40 116.87 L 76.87 114.99 L 77.36 113.13 L 77.85 111.28 L 78.34 109.46 L 78.81 107.64 L 79.27 105.83 L 79.72 104.02 L 80.17 102.21 L 80.61 100.39 L 81.07 98.57 L 81.55 96.75 L 82.07 94.92 L 82.63 93.10 L 83.24 91.28 L 83.92 89.48 L 84.67 87.71 L 85.49 85.96 L 86.38 84.24 L 87.36 82.56 L 88.40 80.92 L 89.52 79.33 L 90.70 77.78 L 91.95 76.27 L 93.25 74.81 L 94.60 73.40 L 95.99 72.02 L 97.42 70.68 L 98.90 69.38 L 100.40 68.12 L 101.95 66.89 L 103.53 65.70 L 105.15 64.56 L 106.80 63.46 L 108.50 62.43 L 110.24 61.45 L 112.02 60.55 L 113.84 59.74 L 115.70 59.01 L 117.60 58.40 L 119.53 57.90 L 121.49 57.53 L 123.47 57.28 L 125.46 57.17 L 127.46 57.20 L 129.46 57.36 L 131.44 57.65 L 133.39 58.05 L 135.32 58.55 L 137.22 59.13 L 139.07 59.77 L 140.89 60.43 L 142.67 61.08 L 144.43 61.71 L 146.16 62.30 L 147.89 62.83 L 149.62 63.30 L 151.36 63.69 L 153.12 64.03 L 154.92 64.31 L 156.74 64.54 L 158.61 64.75 L 160.52 64.94 L 162.46 65.14 L 164.44 65.36 L 166.44 65.62 L 168.47 65.94 L 170.50 66.34 L 172.53 66.82 L 174.56 67.39 L 176.56 68.06 L 178.53 68.85 L 180.46 69.74 L 182.34 70.74 L 184.16 71.84 L 185.91 73.06 L 187.60 74.37 L 189.21 75.77 L 190.74 77.27 L 192.18 78.85 L 193.55 80.50 L 194.83 82.22 L 196.02 84.01 L 197.12 85.85 L 198.13 87.75 L 199.05 89.69 L 199.87 91.67 L 200.59 93.69 L 201.21 95.75 L 201.72 97.83 L 202.12 99.93 L 202.41 102.05 L 202.57 104.17 L 202.62 106.31 L 202.55 108.44 L 202.36 110.55 L 202.06 112.65 L 201.66 114.73 L 201.16 116.77 L 200.58 118.78 Z" fill="#c6eaf6"/>
  <path d="M 193.66 116.48 L 193.13 118.16 L 192.52 119.81 L 191.85 121.43 L 191.12 123.00 L 190.32 124.53 L 189.47 126.01 L 188.58 127.45 L 187.65 128.84 L 186.70 130.19 L 185.73 131.49 L 184.76 132.77 L 183.81 134.01 L 182.86 135.23 L 181.94 136.44 L 181.04 137.63 L 180.17 138.82 L 179.32 140.02 L 178.51 141.22 L 177.72 142.44 L 176.95 143.68 L 176.20 144.93 L 175.46 146.21 L 174.73 147.52 L 173.99 148.85 L 173.24 150.20 L 172.47 151.57 L 171.69 152.97 L 170.87 154.38 L 170.03 155.81 L 169.14 157.25 L 168.21 158.70 L 167.24 160.16 L 166.22 161.62 L 165.14 163.08 L 164.00 164.53 L 162.81 165.96 L 161.54 167.37 L 160.21 168.75 L 158.82 170.07 L 157.35 171.34 L 155.81 172.54 L 154.20 173.65 L 152.53 174.67 L 150.79 175.58 L 149.01 176.38 L 147.17 177.06 L 145.30 177.63 L 143.40 178.09 L 141.47 178.46 L 139.52 178.75 L 137.56 178.97 L 135.58 179.13 L 133.59 179.20 L 131.60 179.18 L 129.61 179.05 L 127.63 178.81 L 125.67 178.45 L 123.73 177.97 L 121.83 177.36 L 119.97 176.64 L 118.17 175.79 L 116.41 174.84 L 114.72 173.79 L 113.09 172.64 L 111.53 171.42 L 110.03 170.12 L 108.60 168.76 L 107.24 167.35 L 105.94 165.90 L 104.69 164.42 L 103.50 162.91 L 102.37 161.39 L 101.28 159.86 L 100.23 158.32 L 99.23 156.77 L 98.26 155.22 L 97.33 153.67 L 96.44 152.12 L 95.58 150.57 L 94.75 149.00 L 93.97 147.44 L 93.23 145.86 L 92.53 144.27 L 91.88 142.67 L 91.28 141.06 L 90.75 139.43 L 90.27 137.79 L 89.86 136.14 L 89.51 134.49 L 89.22 132.82 L 89.00 131.16 L 88.85 129.49 L 88.75 127.83 L 88.71 126.17 L 88.72 124.53 L 88.77 122.89 L 88.87 121.27 L 89.02 119.66 L 89.21 118.06 L 89.44 116.48 L 89.72 114.91 L 90.03 113.37 L 90.39 111.84 L 90.76 110.32 L 91.16 108.82 L 91.56 107.33 L 91.98 105.85 L 92.41 104.38 L 92.85 102.92 L 93.30 101.46 L 93.76 100.01 L 94.24 98.55 L 94.75 97.11 L 95.28 95.66 L 95.84 94.22 L 96.44 92.80 L 97.07 91.38 L 97.75 89.97 L 98.47 88.58 L 99.23 87.21 L 100.04 85.85 L 100.88 84.52 L 101.77 83.20 L 102.70 81.91 L 103.67 80.63 L 104.68 79.38 L 105.72 78.15 L 106.81 76.94 L 107.93 75.75 L 109.09 74.60 L 110.29 73.47 L 111.53 72.38 L 112.82 71.33 L 114.15 70.34 L 115.53 69.39 L 116.95 68.51 L 118.41 67.70 L 119.92 66.98 L 121.47 66.34 L 123.05 65.80 L 124.67 65.37 L 126.31 65.04 L 127.98 64.83 L 129.65 64.74 L 131.33 64.77 L 133.00 64.90 L 134.67 65.15 L 136.31 65.49 L 137.93 65.91 L 139.52 66.40 L 141.08 66.92 L 142.60 67.47 L 144.10 68.01 L 145.58 68.52 L 147.04 69.00 L 148.50 69.43 L 149.96 69.80 L 151.43 70.11 L 152.92 70.37 L 154.43 70.58 L 155.98 70.76 L 157.56 70.91 L 159.18 71.06 L 160.82 71.21 L 162.50 71.39 L 164.19 71.60 L 165.90 71.87 L 167.62 72.20 L 169.33 72.61 L 171.04 73.10 L 172.73 73.67 L 174.38 74.34 L 176.01 75.09 L 177.60 75.93 L 179.13 76.87 L 180.62 77.88 L 182.05 78.98 L 183.42 80.16 L 184.73 81.41 L 185.98 82.72 L 187.16 84.10 L 188.27 85.54 L 189.31 87.03 L 190.28 88.57 L 191.18 90.16 L 192.00 91.79 L 192.73 93.45 L 193.39 95.15 L 193.95 96.88 L 194.42 98.64 L 194.79 100.42 L 195.07 102.22 L 195.24 104.03 L 195.31 105.84 L 195.27 107.65 L 195.13 109.46 L 194.89 111.25 L 194.56 113.02 L 194.14 114.76 L 193.66 116.48 Z" fill="#cceaf3"/>
  <path d="M 186.21 114.18 L 185.78 115.56 L 185.31 116.91 L 184.79 118.24 L 184.23 119.53 L 183.63 120.80 L 183.00 122.03 L 182.34 123.23 L 181.66 124.40 L 180.96 125.55 L 180.25 126.66 L 179.54 127.76 L 178.82 128.83 L 178.11 129.88 L 177.39 130.91 L 176.68 131.93 L 175.97 132.95 L 175.26 133.95 L 174.56 134.95 L 173.86 135.94 L 173.15 136.94 L 172.44 137.93 L 171.73 138.92 L 171.01 139.91 L 170.28 140.90 L 169.54 141.89 L 168.78 142.88 L 168.01 143.88 L 167.22 144.88 L 166.42 145.88 L 165.59 146.89 L 164.74 147.90 L 163.88 148.93 L 162.98 149.96 L 162.07 150.99 L 161.12 152.04 L 160.13 153.08 L 159.11 154.12 L 158.05 155.15 L 156.94 156.16 L 155.79 157.15 L 154.58 158.09 L 153.33 158.98 L 152.03 159.82 L 150.68 160.58 L 149.28 161.27 L 147.85 161.88 L 146.38 162.40 L 144.89 162.84 L 143.36 163.21 L 141.82 163.51 L 140.27 163.77 L 138.69 163.96 L 137.11 164.09 L 135.51 164.13 L 133.92 164.08 L 132.33 163.93 L 130.76 163.67 L 129.21 163.31 L 127.69 162.84 L 126.20 162.27 L 124.75 161.60 L 123.35 160.84 L 122.00 159.99 L 120.70 159.07 L 119.45 158.08 L 118.26 157.03 L 117.12 155.94 L 116.04 154.81 L 115.00 153.64 L 114.01 152.46 L 113.07 151.25 L 112.16 150.03 L 111.30 148.80 L 110.47 147.56 L 109.68 146.32 L 108.92 145.08 L 108.19 143.83 L 107.50 142.57 L 106.84 141.31 L 106.21 140.05 L 105.62 138.78 L 105.06 137.50 L 104.55 136.22 L 104.08 134.93 L 103.65 133.63 L 103.27 132.32 L 102.93 131.01 L 102.65 129.69 L 102.40 128.37 L 102.21 127.05 L 102.06 125.73 L 101.94 124.42 L 101.86 123.11 L 101.81 121.81 L 101.79 120.52 L 101.80 119.23 L 101.82 117.96 L 101.87 116.69 L 101.95 115.43 L 102.06 114.18 L 102.21 112.93 L 102.40 111.70 L 102.64 110.47 L 102.92 109.26 L 103.24 108.06 L 103.59 106.88 L 103.96 105.71 L 104.37 104.56 L 104.79 103.42 L 105.23 102.29 L 105.69 101.17 L 106.17 100.06 L 106.66 98.96 L 107.16 97.86 L 107.68 96.78 L 108.21 95.69 L 108.75 94.62 L 109.31 93.54 L 109.88 92.47 L 110.47 91.40 L 111.08 90.33 L 111.70 89.26 L 112.35 88.19 L 113.01 87.12 L 113.70 86.05 L 114.41 84.99 L 115.16 83.93 L 115.93 82.87 L 116.74 81.83 L 117.58 80.81 L 118.47 79.81 L 119.40 78.84 L 120.37 77.90 L 121.39 77.01 L 122.46 76.16 L 123.57 75.38 L 124.72 74.66 L 125.92 74.01 L 127.16 73.45 L 128.44 72.97 L 129.74 72.59 L 131.07 72.30 L 132.42 72.12 L 133.78 72.03 L 135.15 72.04 L 136.51 72.14 L 137.87 72.34 L 139.21 72.61 L 140.53 72.95 L 141.82 73.34 L 143.09 73.76 L 144.34 74.19 L 145.56 74.63 L 146.77 75.04 L 147.96 75.44 L 149.15 75.79 L 150.33 76.11 L 151.53 76.39 L 152.73 76.63 L 153.96 76.84 L 155.20 77.02 L 156.47 77.20 L 157.75 77.37 L 159.06 77.55 L 160.38 77.75 L 161.72 77.98 L 163.07 78.25 L 164.42 78.58 L 165.76 78.96 L 167.09 79.39 L 168.42 79.89 L 169.72 80.46 L 171.00 81.09 L 172.25 81.78 L 173.47 82.53 L 174.66 83.34 L 175.81 84.21 L 176.93 85.14 L 178.00 86.11 L 179.04 87.14 L 180.03 88.21 L 180.98 89.32 L 181.88 90.49 L 182.73 91.69 L 183.52 92.93 L 184.26 94.21 L 184.93 95.52 L 185.53 96.87 L 186.06 98.25 L 186.50 99.66 L 186.87 101.09 L 187.15 102.54 L 187.34 104.00 L 187.43 105.48 L 187.44 106.95 L 187.35 108.42 L 187.17 109.89 L 186.92 111.34 L 186.60 112.77 L 186.21 114.18 Z" fill="#d3eaf1"/>
  <path d="M 177.95 111.87 L 177.63 112.92 L 177.28 113.96 L 176.90 114.97 L 176.50 115.96 L 176.09 116.93 L 175.66 117.89 L 175.23 118.82 L 174.78 119.74 L 174.33 120.65 L 173.87 121.54 L 173.40 122.41 L 172.93 123.28 L 172.45 124.13 L 171.96 124.97 L 171.47 125.80 L 170.96 126.62 L 170.43 127.43 L 169.90 128.23 L 169.34 129.01 L 168.77 129.78 L 168.18 130.53 L 167.57 131.27 L 166.95 131.99 L 166.30 132.69 L 165.64 133.38 L 164.96 134.05 L 164.26 134.71 L 163.55 135.35 L 162.84 135.99 L 162.11 136.62 L 161.37 137.25 L 160.63 137.88 L 159.88 138.51 L 159.13 139.15 L 158.36 139.80 L 157.58 140.46 L 156.78 141.12 L 155.97 141.78 L 155.14 142.45 L 154.28 143.11 L 153.39 143.76 L 152.48 144.38 L 151.53 144.98 L 150.55 145.54 L 149.54 146.06 L 148.51 146.53 L 147.44 146.96 L 146.36 147.32 L 145.25 147.64 L 144.13 147.92 L 142.99 148.16 L 141.83 148.35 L 140.67 148.49 L 139.49 148.57 L 138.32 148.57 L 137.14 148.51 L 135.97 148.36 L 134.82 148.13 L 133.68 147.82 L 132.57 147.43 L 131.49 146.97 L 130.44 146.44 L 129.43 145.84 L 128.45 145.19 L 127.51 144.49 L 126.61 143.74 L 125.74 142.96 L 124.91 142.15 L 124.12 141.31 L 123.36 140.45 L 122.64 139.58 L 121.94 138.69 L 121.27 137.79 L 120.64 136.89 L 120.03 135.97 L 119.44 135.05 L 118.89 134.13 L 118.36 133.19 L 117.86 132.25 L 117.38 131.30 L 116.94 130.35 L 116.53 129.39 L 116.15 128.42 L 115.81 127.44 L 115.50 126.46 L 115.23 125.47 L 114.99 124.48 L 114.78 123.49 L 114.61 122.50 L 114.47 121.51 L 114.36 120.52 L 114.27 119.54 L 114.20 118.56 L 114.14 117.59 L 114.10 116.63 L 114.07 115.67 L 114.05 114.71 L 114.05 113.76 L 114.05 112.82 L 114.09 111.87 L 114.16 110.93 L 114.27 109.99 L 114.42 109.06 L 114.62 108.14 L 114.87 107.24 L 115.15 106.34 L 115.48 105.47 L 115.83 104.61 L 116.21 103.76 L 116.61 102.93 L 117.03 102.12 L 117.47 101.32 L 117.91 100.53 L 118.36 99.75 L 118.81 98.97 L 119.27 98.20 L 119.72 97.44 L 120.17 96.67 L 120.62 95.89 L 121.06 95.12 L 121.51 94.33 L 121.96 93.53 L 122.41 92.72 L 122.86 91.90 L 123.33 91.07 L 123.81 90.24 L 124.31 89.39 L 124.83 88.55 L 125.38 87.70 L 125.96 86.86 L 126.57 86.04 L 127.22 85.24 L 127.92 84.46 L 128.65 83.72 L 129.42 83.01 L 130.24 82.36 L 131.10 81.76 L 131.99 81.22 L 132.92 80.75 L 133.89 80.36 L 134.88 80.03 L 135.89 79.79 L 136.92 79.63 L 137.96 79.54 L 139.01 79.54 L 140.05 79.61 L 141.09 79.75 L 142.12 79.95 L 143.13 80.21 L 144.13 80.50 L 145.10 80.81 L 146.06 81.14 L 147.00 81.47 L 147.93 81.80 L 148.84 82.11 L 149.75 82.41 L 150.65 82.69 L 151.56 82.94 L 152.47 83.17 L 153.38 83.39 L 154.31 83.59 L 155.24 83.79 L 156.19 84.00 L 157.14 84.21 L 158.11 84.44 L 159.07 84.69 L 160.04 84.97 L 161.00 85.28 L 161.96 85.63 L 162.92 86.01 L 163.86 86.43 L 164.79 86.89 L 165.71 87.39 L 166.61 87.93 L 167.50 88.50 L 168.38 89.10 L 169.24 89.74 L 170.08 90.41 L 170.90 91.11 L 171.70 91.84 L 172.48 92.60 L 173.24 93.40 L 173.97 94.23 L 174.66 95.09 L 175.32 95.98 L 175.94 96.90 L 176.51 97.86 L 177.03 98.85 L 177.49 99.86 L 177.89 100.90 L 178.23 101.97 L 178.49 103.05 L 178.67 104.15 L 178.78 105.26 L 178.82 106.38 L 178.77 107.50 L 178.66 108.61 L 178.48 109.71 L 178.24 110.80 L 177.95 111.87 Z" fill="#daeaef"/>
  <path d="M 169.01 109.57 L 168.80 110.27 L 168.57 110.96 L 168.33 111.64 L 168.08 112.30 L 167.83 112.96 L 167.58 113.60 L 167.33 114.24 L 167.08 114.87 L 166.83 115.49 L 166.58 116.12 L 166.33 116.73 L 166.07 117.34 L 165.81 117.95 L 165.53 118.56 L 165.24 119.15 L 164.94 119.74 L 164.62 120.32 L 164.28 120.89 L 163.91 121.45 L 163.53 121.99 L 163.12 122.51 L 162.68 123.01 L 162.23 123.49 L 161.75 123.95 L 161.25 124.39 L 160.73 124.80 L 160.20 125.19 L 159.66 125.56 L 159.11 125.92 L 158.56 126.26 L 158.00 126.59 L 157.45 126.92 L 156.89 127.25 L 156.33 127.58 L 155.78 127.91 L 155.22 128.25 L 154.67 128.60 L 154.11 128.96 L 153.54 129.32 L 152.97 129.69 L 152.39 130.06 L 151.79 130.43 L 151.17 130.79 L 150.55 131.13 L 149.90 131.46 L 149.24 131.77 L 148.56 132.06 L 147.86 132.32 L 147.15 132.55 L 146.43 132.75 L 145.70 132.93 L 144.95 133.08 L 144.20 133.20 L 143.44 133.28 L 142.67 133.32 L 141.90 133.31 L 141.14 133.25 L 140.38 133.13 L 139.63 132.97 L 138.90 132.76 L 138.18 132.50 L 137.48 132.19 L 136.79 131.84 L 136.13 131.45 L 135.49 131.03 L 134.88 130.59 L 134.28 130.11 L 133.71 129.61 L 133.16 129.10 L 132.63 128.57 L 132.12 128.02 L 131.63 127.46 L 131.16 126.89 L 130.71 126.32 L 130.27 125.73 L 129.86 125.13 L 129.47 124.52 L 129.10 123.91 L 128.74 123.29 L 128.41 122.66 L 128.11 122.02 L 127.82 121.38 L 127.56 120.73 L 127.33 120.07 L 127.12 119.41 L 126.93 118.75 L 126.77 118.08 L 126.63 117.41 L 126.51 116.74 L 126.41 116.07 L 126.33 115.41 L 126.26 114.75 L 126.20 114.09 L 126.15 113.44 L 126.11 112.79 L 126.07 112.14 L 126.04 111.50 L 126.01 110.85 L 126.00 110.21 L 126.00 109.57 L 126.02 108.93 L 126.08 108.29 L 126.18 107.65 L 126.31 107.03 L 126.48 106.41 L 126.69 105.80 L 126.93 105.21 L 127.20 104.63 L 127.50 104.07 L 127.81 103.52 L 128.14 102.98 L 128.48 102.46 L 128.83 101.95 L 129.18 101.45 L 129.53 100.96 L 129.87 100.47 L 130.21 99.98 L 130.54 99.48 L 130.87 98.99 L 131.18 98.49 L 131.48 97.97 L 131.78 97.45 L 132.08 96.91 L 132.37 96.36 L 132.66 95.80 L 132.96 95.23 L 133.27 94.64 L 133.60 94.05 L 133.94 93.46 L 134.30 92.87 L 134.69 92.29 L 135.10 91.71 L 135.54 91.16 L 136.02 90.62 L 136.52 90.12 L 137.06 89.65 L 137.62 89.21 L 138.22 88.83 L 138.84 88.49 L 139.49 88.20 L 140.15 87.96 L 140.84 87.78 L 141.53 87.66 L 142.24 87.59 L 142.95 87.58 L 143.66 87.63 L 144.37 87.72 L 145.07 87.85 L 145.75 88.02 L 146.43 88.21 L 147.10 88.42 L 147.75 88.64 L 148.39 88.87 L 149.02 89.10 L 149.64 89.32 L 150.25 89.54 L 150.86 89.76 L 151.47 89.96 L 152.07 90.16 L 152.68 90.35 L 153.28 90.54 L 153.89 90.73 L 154.50 90.92 L 155.11 91.12 L 155.73 91.33 L 156.34 91.55 L 156.95 91.79 L 157.55 92.05 L 158.15 92.32 L 158.75 92.62 L 159.33 92.93 L 159.92 93.27 L 160.49 93.62 L 161.07 93.98 L 161.63 94.37 L 162.20 94.76 L 162.75 95.18 L 163.31 95.61 L 163.86 96.05 L 164.40 96.51 L 164.93 96.99 L 165.46 97.49 L 165.97 98.01 L 166.46 98.56 L 166.93 99.12 L 167.38 99.71 L 167.80 100.32 L 168.18 100.96 L 168.52 101.61 L 168.83 102.29 L 169.08 102.99 L 169.28 103.70 L 169.43 104.43 L 169.53 105.16 L 169.56 105.90 L 169.55 106.65 L 169.48 107.39 L 169.36 108.13 L 169.20 108.85 L 169.01 109.57 Z" fill="#e1eaed"/>
  <path d="M 159.86 107.26 L 159.76 107.61 L 159.64 107.95 L 159.53 108.28 L 159.41 108.61 L 159.30 108.94 L 159.19 109.26 L 159.08 109.58 L 158.98 109.89 L 158.88 110.21 L 158.79 110.53 L 158.69 110.85 L 158.59 111.17 L 158.49 111.49 L 158.38 111.80 L 158.27 112.12 L 158.14 112.43 L 158.00 112.74 L 157.85 113.05 L 157.68 113.34 L 157.50 113.63 L 157.30 113.90 L 157.08 114.17 L 156.84 114.41 L 156.59 114.64 L 156.33 114.86 L 156.05 115.06 L 155.77 115.24 L 155.47 115.41 L 155.17 115.56 L 154.87 115.70 L 154.56 115.84 L 154.26 115.97 L 153.96 116.09 L 153.66 116.21 L 153.36 116.34 L 153.07 116.46 L 152.77 116.60 L 152.49 116.73 L 152.20 116.88 L 151.91 117.03 L 151.62 117.18 L 151.32 117.33 L 151.02 117.49 L 150.72 117.65 L 150.40 117.80 L 150.09 117.95 L 149.76 118.09 L 149.42 118.21 L 149.08 118.33 L 148.74 118.44 L 148.38 118.54 L 148.02 118.62 L 147.66 118.69 L 147.29 118.74 L 146.91 118.77 L 146.54 118.78 L 146.16 118.77 L 145.79 118.73 L 145.42 118.68 L 145.05 118.60 L 144.69 118.49 L 144.34 118.37 L 143.99 118.22 L 143.65 118.06 L 143.33 117.88 L 143.00 117.69 L 142.69 117.48 L 142.39 117.26 L 142.10 117.03 L 141.82 116.79 L 141.54 116.54 L 141.28 116.28 L 141.03 116.01 L 140.78 115.73 L 140.55 115.45 L 140.33 115.16 L 140.12 114.86 L 139.92 114.56 L 139.73 114.25 L 139.55 113.94 L 139.39 113.62 L 139.24 113.29 L 139.10 112.96 L 138.97 112.63 L 138.86 112.30 L 138.76 111.96 L 138.68 111.62 L 138.60 111.28 L 138.54 110.94 L 138.48 110.60 L 138.44 110.26 L 138.40 109.92 L 138.37 109.58 L 138.34 109.25 L 138.31 108.92 L 138.29 108.58 L 138.27 108.25 L 138.25 107.92 L 138.23 107.59 L 138.23 107.26 L 138.24 106.93 L 138.26 106.61 L 138.31 106.28 L 138.38 105.96 L 138.47 105.64 L 138.58 105.33 L 138.72 105.02 L 138.87 104.73 L 139.03 104.44 L 139.21 104.17 L 139.40 103.90 L 139.59 103.64 L 139.79 103.39 L 139.98 103.15 L 140.18 102.90 L 140.37 102.67 L 140.56 102.43 L 140.74 102.19 L 140.92 101.95 L 141.09 101.71 L 141.25 101.46 L 141.41 101.20 L 141.56 100.94 L 141.71 100.66 L 141.86 100.38 L 142.00 100.10 L 142.16 99.80 L 142.32 99.50 L 142.48 99.20 L 142.66 98.90 L 142.85 98.60 L 143.05 98.30 L 143.27 98.01 L 143.50 97.74 L 143.75 97.48 L 144.02 97.23 L 144.30 97.01 L 144.60 96.81 L 144.91 96.63 L 145.23 96.48 L 145.57 96.35 L 145.91 96.26 L 146.26 96.19 L 146.62 96.16 L 146.98 96.15 L 147.33 96.17 L 147.69 96.21 L 148.04 96.28 L 148.39 96.36 L 148.74 96.46 L 149.07 96.57 L 149.40 96.68 L 149.73 96.79 L 150.04 96.91 L 150.36 97.03 L 150.66 97.15 L 150.97 97.27 L 151.27 97.39 L 151.57 97.50 L 151.87 97.62 L 152.17 97.73 L 152.46 97.85 L 152.76 97.97 L 153.05 98.09 L 153.34 98.22 L 153.63 98.36 L 153.92 98.50 L 154.20 98.65 L 154.48 98.80 L 154.76 98.97 L 155.04 99.14 L 155.31 99.31 L 155.58 99.50 L 155.85 99.68 L 156.12 99.88 L 156.39 100.07 L 156.66 100.28 L 156.93 100.49 L 157.20 100.70 L 157.47 100.92 L 157.73 101.15 L 158.00 101.39 L 158.26 101.63 L 158.51 101.89 L 158.75 102.16 L 158.98 102.44 L 159.20 102.74 L 159.40 103.04 L 159.58 103.36 L 159.73 103.69 L 159.87 104.03 L 159.98 104.38 L 160.06 104.73 L 160.11 105.09 L 160.13 105.46 L 160.13 105.83 L 160.09 106.19 L 160.04 106.55 L 159.96 106.91 L 159.86 107.26 Z" fill="#e8eaeb"/>
</g>
</g>
</svg>
