<svg xmlns="http://www.w3.org/2000/svg" width="1080" height="2040" viewBox="0 0 1080 2040">
<path d="M 957.28 398.19 L 960.39 400.30 L 963.11 402.54 L 965.45 404.92 L 967.38 407.43 L 968.90 410.08 L 970.01 412.87 L 970.68 415.79 L 970.92 418.84 L 970.70 422.03 L 970.04 425.36 L 968.91 428.81 L 967.31 432.39 L 965.23 436.10 L 962.67 439.93 L 959.62 443.89 L 956.08 447.97 L 952.04 452.16 L 947.49 456.47 L 942.44 460.89 L 936.89 465.41 L 930.82 470.04 L 924.25 474.76 L 917.18 479.57 L 909.59 484.46 L 901.51 489.44 L 892.92 494.49 L 883.85 499.61 L 874.28 504.79 L 864.24 510.03 L 853.73 515.31 L 842.76 520.63 L 831.34 525.98 L 819.48 531.36 L 807.20 536.75 L 794.52 542.14 L 781.44 547.54 L 767.99 552.92 L 754.18 558.29 L 740.04 563.62 L 725.58 568.92 L 710.83 574.17 L 695.81 579.37 L 680.55 584.50 L 665.06 589.56 L 649.37 594.53 L 633.51 599.41 L 617.51 604.20 L 601.39 608.87 L 585.18 613.43 L 568.90 617.86 L 552.59 622.16 L 536.27 626.32 L 519.97 630.33 L 503.72 634.19 L 487.55 637.89 L 471.48 641.43 L 455.53 644.79 L 439.75 647.98 L 424.14 650.99 L 408.74 653.82 L 393.57 656.46 L 378.66 658.91 L 364.02 661.17 L 349.68 663.23 L 335.65 665.10 L 321.97 666.77 L 308.64 668.24 L 295.68 669.51 L 283.12 670.58 L 270.95 671.46 L 259.21 672.14 L 247.90 672.63 L 237.03 672.93 L 226.61 673.03 L 216.65 672.95 L 207.16 672.68 L 198.14 672.23 L 189.60 671.60 L 181.55 670.80 L 173.99 669.83 L 166.92 668.69 L 160.34 667.39 L 154.25 665.93 L 148.65 664.32 L 143.54 662.56 L 138.92 660.66 L 134.79 658.62 L 131.14 656.44 L 127.96 654.14 L 125.25 651.71 L 123.02 649.17 L 121.24 646.51 L 119.91 643.75 L 119.04 640.88 L 118.60 637.92 L 118.59 634.86 L 119.01 631.72 L 119.84 628.49 L 121.08 625.19 L 122.72 621.81 L 124.75 618.36 L 127.16 614.85 L 129.93 611.28 L 133.07 607.66 L 136.57 603.99 L 140.40 600.26 L 144.57 596.50 L 149.07 592.70 L 153.88 588.86 L 158.99 584.99 L 164.40 581.10 L 170.10 577.18 L 176.08 573.24 L 182.33 569.29 L 188.84 565.32 L 195.59 561.34 L 202.60 557.36 L 209.83 553.37 L 217.29 549.38 L 224.97 545.39 L 232.86 541.41 L 240.95 537.43 L 249.24 533.46 L 257.71 529.50 L 266.35 525.56 L 275.17 521.64 L 284.15 517.73 L 293.29 513.84 L 302.58 509.98 L 312.01 506.14 L 321.57 502.33 L 331.26 498.55 L 341.07 494.80 L 351.00 491.08 L 361.04 487.40 L 371.18 483.75 L 381.42 480.14 L 391.74 476.57 L 402.15 473.05 L 412.64 469.56 L 423.20 466.12 L 433.83 462.73 L 444.52 459.39 L 455.26 456.09 L 466.05 452.85 L 476.89 449.65 L 487.76 446.51 L 498.67 443.43 L 509.60 440.41 L 520.56 437.44 L 531.53 434.53 L 542.51 431.68 L 553.50 428.90 L 564.48 426.18 L 575.46 423.53 L 586.43 420.94 L 597.38 418.42 L 608.31 415.98 L 619.21 413.60 L 630.08 411.30 L 640.90 409.07 L 651.68 406.92 L 662.41 404.85 L 673.08 402.86 L 683.68 400.95 L 694.22 399.12 L 704.67 397.37 L 715.05 395.71 L 725.33 394.14 L 735.52 392.66 L 745.60 391.27 L 755.58 389.97 L 765.43 388.77 L 775.17 387.66 L 784.77 386.65 L 794.23 385.74 L 803.54 384.94 L 812.70 384.23 L 821.69 383.63 L 830.52 383.14 L 839.16 382.75 L 847.62 382.48 L 855.88 382.31 L 863.94 382.26 L 871.78 382.33 L 879.40 382.51 L 886.79 382.81 L 893.93 383.23 L 900.83 383.78 L 907.46 384.44 L 913.82 385.23 L 919.91 386.15 L 925.70 387.20 L 931.19 388.37 L 936.38 389.68 L 941.24 391.11 L 945.77 392.68 L 949.96 394.38 L 953.80 396.22 L 957.28 398.19 Z" fill="none" stroke="#262626" stroke-width="0.6" opacity="1"/>
<path d="M 1165.92 342.29 L 1172.54 344.93 L 1178.64 347.80 L 1184.21 350.88 L 1189.23 354.19 L 1193.68 357.72 L 1197.52 361.47 L 1200.75 365.46 L 1203.34 369.68 L 1205.26 374.13 L 1206.50 378.81 L 1207.03 383.73 L 1206.84 388.89 L 1205.89 394.28 L 1204.18 399.90 L 1201.68 405.76 L 1198.37 411.85 L 1194.23 418.17 L 1189.25 424.71 L 1183.41 431.48 L 1176.69 438.47 L 1169.09 445.67 L 1160.59 453.08 L 1151.17 460.69 L 1140.84 468.49 L 1129.59 476.47 L 1117.40 484.63 L 1104.29 492.95 L 1090.26 501.43 L 1075.30 510.04 L 1059.43 518.79 L 1042.65 527.65 L 1024.99 536.60 L 1006.45 545.64 L 987.05 554.75 L 966.83 563.91 L 945.80 573.09 L 924.00 582.30 L 901.46 591.49 L 878.21 600.66 L 854.30 609.79 L 829.77 618.85 L 804.66 627.83 L 779.02 636.70 L 752.91 645.45 L 726.37 654.05 L 699.47 662.48 L 672.26 670.73 L 644.79 678.78 L 617.14 686.60 L 589.35 694.18 L 561.50 701.51 L 533.64 708.56 L 505.83 715.33 L 478.14 721.79 L 450.62 727.93 L 423.34 733.75 L 396.35 739.24 L 369.72 744.37 L 343.48 749.15 L 317.70 753.57 L 292.43 757.62 L 267.72 761.30 L 243.59 764.61 L 220.11 767.54 L 197.31 770.10 L 175.21 772.28 L 153.86 774.09 L 133.29 775.53 L 113.51 776.61 L 94.55 777.33 L 76.44 777.69 L 59.18 777.71 L 42.78 777.38 L 27.27 776.73 L 12.64 775.76 L -1.10 774.47 L -13.95 772.88 L -25.90 771.00 L -36.97 768.83 L -47.16 766.40 L -56.47 763.71 L -64.91 760.77 L -72.50 757.59 L -79.24 754.18 L -85.15 750.56 L -90.25 746.74 L -94.54 742.73 L -98.05 738.53 L -100.80 734.16 L -102.80 729.64 L -104.07 724.96 L -104.63 720.14 L -104.50 715.20 L -103.69 710.13 L -102.24 704.96 L -100.16 699.68 L -97.46 694.31 L -94.18 688.85 L -90.33 683.32 L -85.92 677.71 L -80.98 672.05 L -75.53 666.33 L -69.59 660.57 L -63.17 654.76 L -56.30 648.92 L -48.98 643.04 L -41.25 637.15 L -33.10 631.23 L -24.57 625.31 L -15.67 619.37 L -6.41 613.44 L 3.19 607.50 L 13.11 601.57 L 23.35 595.64 L 33.89 589.73 L 44.72 583.84 L 55.82 577.96 L 67.18 572.11 L 78.79 566.28 L 90.63 560.48 L 102.70 554.72 L 114.99 548.98 L 127.48 543.28 L 140.17 537.63 L 153.04 532.01 L 166.09 526.43 L 179.31 520.90 L 192.68 515.41 L 206.21 509.97 L 219.88 504.58 L 233.68 499.25 L 247.62 493.96 L 261.67 488.73 L 275.83 483.56 L 290.11 478.44 L 304.48 473.38 L 318.95 468.38 L 333.50 463.44 L 348.14 458.57 L 362.85 453.76 L 377.64 449.01 L 392.49 444.33 L 407.40 439.71 L 422.37 435.17 L 437.39 430.69 L 452.45 426.28 L 467.55 421.95 L 482.68 417.69 L 497.85 413.50 L 513.04 409.39 L 528.25 405.35 L 543.48 401.40 L 558.72 397.52 L 573.97 393.72 L 589.21 390.01 L 604.45 386.38 L 619.69 382.83 L 634.91 379.37 L 650.11 376.00 L 665.29 372.72 L 680.44 369.53 L 695.55 366.43 L 710.63 363.43 L 725.66 360.53 L 740.63 357.72 L 755.55 355.02 L 770.41 352.42 L 785.19 349.92 L 799.90 347.53 L 814.52 345.25 L 829.06 343.08 L 843.49 341.03 L 857.82 339.09 L 872.03 337.27 L 886.12 335.58 L 900.08 334.01 L 913.89 332.57 L 927.56 331.26 L 941.07 330.08 L 954.41 329.04 L 967.56 328.14 L 980.53 327.38 L 993.29 326.77 L 1005.84 326.31 L 1018.17 326.00 L 1030.25 325.85 L 1042.08 325.86 L 1053.64 326.03 L 1064.93 326.37 L 1075.91 326.88 L 1086.59 327.57 L 1096.94 328.44 L 1106.95 329.49 L 1116.59 330.73 L 1125.86 332.16 L 1134.74 333.78 L 1143.20 335.60 L 1151.23 337.62 L 1158.81 339.85 L 1165.92 342.29 Z" fill="none" stroke="#262626" stroke-width="0.6" opacity="1"/>
<path d="M 1374.56 286.38 L 1386.01 289.23 L 1396.88 292.37 L 1407.16 295.82 L 1416.80 299.57 L 1425.77 303.65 L 1434.04 308.05 L 1441.55 312.78 L 1448.28 317.86 L 1454.18 323.29 L 1459.22 329.07 L 1463.35 335.21 L 1466.52 341.72 L 1468.69 348.60 L 1469.83 355.86 L 1469.88 363.51 L 1468.80 371.53 L 1466.54 379.94 L 1463.07 388.74 L 1458.34 397.93 L 1452.31 407.51 L 1444.94 417.46 L 1436.18 427.80 L 1426.01 438.51 L 1414.39 449.59 L 1401.28 461.02 L 1386.67 472.80 L 1370.53 484.91 L 1352.84 497.34 L 1333.59 510.07 L 1312.76 523.07 L 1290.37 536.34 L 1266.40 549.84 L 1240.88 563.56 L 1213.82 577.45 L 1185.25 591.49 L 1155.20 605.65 L 1123.71 619.89 L 1090.83 634.19 L 1056.63 648.49 L 1021.15 662.77 L 984.49 676.97 L 946.71 691.07 L 907.91 705.02 L 868.18 718.78 L 827.63 732.30 L 786.35 745.56 L 744.47 758.49 L 702.10 771.08 L 659.36 783.27 L 616.38 795.04 L 573.26 806.34 L 530.15 817.15 L 487.17 827.44 L 444.43 837.17 L 402.06 846.33 L 360.18 854.90 L 318.89 862.85 L 278.32 870.17 L 238.55 876.85 L 199.69 882.87 L 161.83 888.25 L 125.06 892.97 L 89.44 897.03 L 55.05 900.44 L 21.94 903.20 L -9.82 905.32 L -40.20 906.82 L -69.16 907.71 L -96.67 908.00 L -122.69 907.70 L -147.23 906.85 L -170.27 905.45 L -191.81 903.54 L -211.84 901.12 L -230.38 898.22 L -247.45 894.87 L -263.05 891.09 L -277.22 886.90 L -289.97 882.33 L -301.33 877.39 L -311.34 872.12 L -320.03 866.53 L -327.44 860.64 L -333.60 854.48 L -338.54 848.07 L -342.32 841.43 L -344.97 834.57 L -346.53 827.53 L -347.03 820.30 L -346.53 812.92 L -345.06 805.39 L -342.66 797.74 L -339.37 789.98 L -335.23 782.12 L -330.28 774.18 L -324.55 766.17 L -318.08 758.09 L -310.90 749.97 L -303.05 741.81 L -294.56 733.62 L -285.46 725.41 L -275.79 717.19 L -265.57 708.97 L -254.83 700.75 L -243.60 692.55 L -231.90 684.36 L -219.76 676.20 L -207.20 668.06 L -194.25 659.96 L -180.92 651.90 L -167.24 643.88 L -153.22 635.91 L -138.89 627.98 L -124.27 620.11 L -109.36 612.30 L -94.19 604.55 L -78.77 596.85 L -63.11 589.23 L -47.24 581.66 L -31.15 574.17 L -14.87 566.74 L 1.60 559.38 L 18.24 552.10 L 35.05 544.89 L 52.01 537.75 L 69.12 530.69 L 86.36 523.70 L 103.73 516.80 L 121.22 509.97 L 138.83 503.21 L 156.54 496.54 L 174.36 489.94 L 192.26 483.43 L 210.26 476.99 L 228.34 470.64 L 246.50 464.37 L 264.73 458.18 L 283.03 452.07 L 301.40 446.04 L 319.82 440.09 L 338.30 434.23 L 356.83 428.45 L 375.42 422.76 L 394.04 417.15 L 412.71 411.62 L 431.42 406.18 L 450.17 400.83 L 468.94 395.56 L 487.75 390.38 L 506.58 385.28 L 525.44 380.28 L 544.32 375.36 L 563.21 370.54 L 582.12 365.80 L 601.04 361.16 L 619.97 356.61 L 638.91 352.15 L 657.85 347.79 L 676.79 343.53 L 695.73 339.37 L 714.66 335.30 L 733.57 331.34 L 752.48 327.48 L 771.36 323.73 L 790.22 320.08 L 809.06 316.55 L 827.86 313.12 L 846.63 309.81 L 865.35 306.61 L 884.03 303.54 L 902.65 300.58 L 921.22 297.75 L 939.72 295.05 L 958.14 292.48 L 976.49 290.04 L 994.74 287.74 L 1012.90 285.58 L 1030.96 283.57 L 1048.90 281.70 L 1066.71 279.99 L 1084.39 278.44 L 1101.92 277.05 L 1119.30 275.83 L 1136.50 274.79 L 1153.51 273.91 L 1170.33 273.23 L 1186.93 272.73 L 1203.30 272.43 L 1219.43 272.32 L 1235.28 272.43 L 1250.86 272.75 L 1266.12 273.29 L 1281.07 274.05 L 1295.66 275.05 L 1309.89 276.29 L 1323.72 277.78 L 1337.13 279.53 L 1350.09 281.54 L 1362.58 283.82 L 1374.56 286.38 Z" fill="none" stroke="#262626" stroke-width="0.6" opacity="1"/>
<path d="M 1583.20 230.48 L 1600.81 233.17 L 1617.89 236.24 L 1634.41 239.69 L 1650.32 243.53 L 1665.56 247.78 L 1680.09 252.47 L 1693.86 257.59 L 1706.79 263.18 L 1718.84 269.23 L 1729.94 275.78 L 1740.02 282.84 L 1749.01 290.41 L 1756.83 298.53 L 1763.42 307.20 L 1768.70 316.43 L 1772.57 326.24 L 1774.97 336.65 L 1775.79 347.67 L 1774.97 359.29 L 1772.41 371.54 L 1768.02 384.43 L 1761.71 397.94 L 1753.40 412.09 L 1743.00 426.88 L 1730.43 442.30 L 1715.61 458.34 L 1698.47 475.00 L 1678.93 492.26 L 1656.94 510.09 L 1632.44 528.48 L 1605.38 547.40 L 1575.74 566.81 L 1543.49 586.68 L 1508.63 606.96 L 1471.15 627.60 L 1431.09 648.55 L 1388.48 669.74 L 1343.39 691.13 L 1295.88 712.63 L 1246.05 734.17 L 1194.01 755.68 L 1139.90 777.08 L 1083.87 798.30 L 1026.08 819.23 L 966.72 839.81 L 905.99 859.95 L 844.10 879.57 L 781.27 898.59 L 717.74 916.92 L 653.75 934.51 L 589.53 951.28 L 525.35 967.16 L 461.43 982.11 L 398.02 996.06 L 335.35 1008.99 L 273.66 1020.84 L 213.14 1031.61 L 154.01 1041.25 L 96.45 1049.77 L 40.63 1057.16 L -13.30 1063.42 L -65.19 1068.55 L -114.94 1072.58 L -162.43 1075.53 L -207.60 1077.42 L -250.38 1078.28 L -290.71 1078.15 L -328.57 1077.07 L -363.95 1075.08 L -396.84 1072.23 L -427.25 1068.55 L -455.22 1064.10 L -480.76 1058.93 L -503.94 1053.07 L -524.79 1046.59 L -543.39 1039.52 L -559.79 1031.91 L -574.06 1023.81 L -586.28 1015.26 L -596.52 1006.30 L -604.87 996.97 L -611.40 987.31 L -616.18 977.36 L -619.32 967.15 L -620.87 956.71 L -620.92 946.08 L -619.54 935.28 L -616.82 924.34 L -612.83 913.28 L -607.63 902.13 L -601.29 890.91 L -593.88 879.64 L -585.47 868.34 L -576.12 857.02 L -565.87 845.70 L -554.80 834.39 L -542.94 823.11 L -530.36 811.86 L -517.10 800.66 L -503.20 789.52 L -488.71 778.45 L -473.66 767.45 L -458.10 756.53 L -442.06 745.69 L -425.57 734.94 L -408.67 724.29 L -391.39 713.74 L -373.74 703.29 L -355.77 692.95 L -337.48 682.72 L -318.92 672.59 L -300.09 662.58 L -281.01 652.68 L -261.71 642.90 L -242.21 633.23 L -222.50 623.68 L -202.63 614.24 L -182.58 604.92 L -162.39 595.71 L -142.06 586.63 L -121.59 577.65 L -101.01 568.80 L -80.32 560.05 L -59.53 551.42 L -38.64 542.91 L -17.67 534.50 L 3.39 526.21 L 24.51 518.03 L 45.71 509.96 L 66.97 502.00 L 88.29 494.14 L 109.66 486.39 L 131.08 478.75 L 152.56 471.22 L 174.07 463.79 L 195.63 456.46 L 217.23 449.23 L 238.87 442.11 L 260.54 435.09 L 282.25 428.16 L 303.99 421.34 L 325.76 414.62 L 347.56 407.99 L 369.40 401.47 L 391.26 395.04 L 413.15 388.70 L 435.06 382.47 L 457.01 376.33 L 478.98 370.29 L 500.97 364.34 L 522.99 358.49 L 545.04 352.74 L 567.11 347.09 L 589.21 341.53 L 611.33 336.07 L 633.48 330.71 L 655.65 325.44 L 677.84 320.28 L 700.06 315.22 L 722.30 310.25 L 744.56 305.39 L 766.84 300.64 L 789.14 295.99 L 811.46 291.45 L 833.79 287.01 L 856.14 282.69 L 878.51 278.48 L 900.88 274.39 L 923.27 270.41 L 945.66 266.55 L 968.05 262.82 L 990.44 259.21 L 1012.83 255.73 L 1035.20 252.39 L 1057.57 249.18 L 1079.92 246.11 L 1102.24 243.19 L 1124.53 240.41 L 1146.78 237.79 L 1168.99 235.33 L 1191.14 233.04 L 1213.24 230.91 L 1235.25 228.96 L 1257.19 227.19 L 1279.02 225.62 L 1300.75 224.24 L 1322.36 223.06 L 1343.83 222.10 L 1365.14 221.35 L 1386.28 220.83 L 1407.23 220.56 L 1427.97 220.53 L 1448.48 220.75 L 1468.72 221.25 L 1488.68 222.02 L 1508.33 223.08 L 1527.64 224.45 L 1546.58 226.13 L 1565.11 228.13 L 1583.20 230.48 Z" fill="none" stroke="#262626" stroke-width="0.6" opacity="1"/>
<path d="M 1791.84 174.57 L 1816.95 176.77 L 1841.72 179.39 L 1866.09 182.46 L 1890.01 186.00 L 1913.43 190.04 L 1936.29 194.60 L 1958.51 199.70 L 1980.03 205.37 L 2000.77 211.65 L 2020.65 218.56 L 2039.57 226.13 L 2057.45 234.39 L 2074.16 243.38 L 2089.62 253.12 L 2103.69 263.65 L 2116.26 275.01 L 2127.18 287.21 L 2136.33 300.31 L 2143.55 314.31 L 2148.69 329.27 L 2151.60 345.20 L 2152.09 362.14 L 2150.01 380.09 L 2145.18 399.09 L 2137.41 419.16 L 2126.54 440.29 L 2112.38 462.50 L 2094.76 485.78 L 2073.50 510.13 L 2048.45 535.52 L 2019.45 561.94 L 1986.36 589.34 L 1949.07 617.67 L 1907.48 646.88 L 1861.51 676.90 L 1811.11 707.63 L 1756.28 738.99 L 1697.05 770.86 L 1633.47 803.12 L 1565.64 835.64 L 1493.73 868.27 L 1417.93 900.86 L 1338.46 933.25 L 1255.63 965.27 L 1169.76 996.74 L 1081.22 1027.50 L 990.40 1057.37 L 897.75 1086.19 L 803.73 1113.79 L 708.82 1140.03 L 613.50 1164.76 L 518.27 1187.87 L 423.63 1209.24 L 330.04 1228.77 L 237.98 1246.41 L 147.88 1262.09 L 60.13 1275.78 L -24.87 1287.46 L -106.82 1297.14 L -185.41 1304.84 L -260.41 1310.58 L -331.60 1314.43 L -398.84 1316.45 L -462.00 1316.71 L -521.01 1315.29 L -575.83 1312.28 L -626.46 1307.78 L -672.92 1301.89 L -715.27 1294.70 L -753.59 1286.33 L -787.99 1276.86 L -818.57 1266.40 L -845.47 1255.05 L -868.84 1242.90 L -888.82 1230.03 L -905.58 1216.54 L -919.26 1202.50 L -930.04 1187.99 L -938.08 1173.08 L -943.53 1157.83 L -946.56 1142.31 L -947.31 1126.56 L -945.93 1110.65 L -942.58 1094.62 L -937.37 1078.50 L -930.45 1062.35 L -921.93 1046.18 L -911.95 1030.04 L -900.60 1013.95 L -888.00 997.93 L -874.24 982.01 L -859.42 966.20 L -843.62 950.53 L -826.92 935.00 L -809.41 919.62 L -791.14 904.42 L -772.20 889.39 L -752.63 874.54 L -732.49 859.89 L -711.84 845.43 L -690.72 831.17 L -669.19 817.11 L -647.27 803.25 L -625.01 789.60 L -602.45 776.15 L -579.61 762.91 L -556.52 749.87 L -533.22 737.03 L -509.71 724.39 L -486.04 711.96 L -462.21 699.72 L -438.25 687.68 L -414.18 675.82 L -390.00 664.16 L -365.73 652.69 L -341.39 641.40 L -316.99 630.29 L -292.53 619.36 L -268.02 608.60 L -243.48 598.02 L -218.91 587.60 L -194.31 577.35 L -169.69 567.26 L -145.07 557.33 L -120.43 547.56 L -95.78 537.94 L -71.13 528.46 L -46.48 519.14 L -21.83 509.95 L 2.82 500.91 L 27.47 492.01 L 52.11 483.24 L 76.75 474.60 L 101.39 466.10 L 126.02 457.72 L 150.65 449.46 L 175.28 441.33 L 199.91 433.32 L 224.53 425.43 L 249.17 417.66 L 273.80 410.00 L 298.44 402.46 L 323.09 395.02 L 347.75 387.70 L 372.43 380.48 L 397.11 373.37 L 421.81 366.37 L 446.54 359.47 L 471.28 352.68 L 496.05 345.99 L 520.85 339.40 L 545.68 332.91 L 570.54 326.52 L 595.43 320.23 L 620.37 314.05 L 645.34 307.96 L 670.36 301.97 L 695.42 296.09 L 720.53 290.30 L 745.70 284.61 L 770.92 279.03 L 796.19 273.55 L 821.53 268.17 L 846.92 262.90 L 872.38 257.73 L 897.90 252.67 L 923.49 247.72 L 949.14 242.88 L 974.87 238.15 L 1000.67 233.54 L 1026.53 229.05 L 1052.47 224.67 L 1078.49 220.42 L 1104.57 216.30 L 1130.72 212.31 L 1156.95 208.46 L 1183.25 204.74 L 1209.61 201.17 L 1236.03 197.75 L 1262.52 194.49 L 1289.07 191.38 L 1315.67 188.45 L 1342.32 185.68 L 1369.01 183.10 L 1395.73 180.71 L 1422.49 178.51 L 1449.25 176.52 L 1476.03 174.74 L 1502.80 173.19 L 1529.56 171.88 L 1556.28 170.81 L 1582.95 170.00 L 1609.55 169.47 L 1636.06 169.22 L 1662.46 169.27 L 1688.73 169.63 L 1714.83 170.33 L 1740.74 171.37 L 1766.42 172.78 L 1791.84 174.57 Z" fill="none" stroke="#262626" stroke-width="0.6" opacity="1"/>
<path d="M 2000.48 118.67 L 2034.46 120.01 L 2068.42 121.82 L 2102.33 124.11 L 2136.14 126.94 L 2169.80 130.32 L 2203.25 134.29 L 2236.44 138.90 L 2269.29 144.18 L 2301.72 150.19 L 2333.65 156.95 L 2364.97 164.53 L 2395.58 172.98 L 2425.36 182.35 L 2454.17 192.69 L 2481.86 204.08 L 2508.28 216.56 L 2533.24 230.22 L 2556.56 245.10 L 2578.02 261.30 L 2597.39 278.86 L 2614.43 297.87 L 2628.85 318.41 L 2640.39 340.52 L 2648.72 364.30 L 2653.53 389.80 L 2654.47 417.09 L 2651.17 446.22 L 2643.26 477.24 L 2630.36 510.17 L 2612.07 545.06 L 2587.99 581.90 L 2557.75 620.68 L 2520.96 661.37 L 2477.28 703.92 L 2426.36 748.23 L 2367.94 794.21 L 2301.79 841.69 L 2227.74 890.51 L 2145.71 940.44 L 2055.71 991.24 L 1957.86 1042.62 L 1852.36 1094.28 L 1739.56 1145.86 L 1619.91 1197.01 L 1493.99 1247.33 L 1362.49 1296.44 L 1226.21 1343.95 L 1086.05 1389.46 L 942.99 1432.61 L 798.05 1473.06 L 652.31 1510.50 L 506.83 1544.66 L 362.70 1575.33 L 220.93 1602.32 L 82.49 1625.54 L -51.72 1644.92 L -180.92 1660.45 L -304.40 1672.18 L -421.59 1680.20 L -532.03 1684.62 L -635.37 1685.63 L -731.37 1683.40 L -819.91 1678.14 L -900.94 1670.10 L -974.52 1659.50 L -1040.77 1646.57 L -1099.88 1631.57 L -1152.09 1614.73 L -1197.67 1596.26 L -1236.93 1576.39 L -1270.21 1555.33 L -1297.86 1533.25 L -1320.21 1510.35 L -1337.63 1486.77 L -1350.47 1462.67 L -1359.06 1438.18 L -1363.73 1413.43 L -1364.80 1388.50 L -1362.57 1363.51 L -1357.32 1338.52 L -1349.33 1313.63 L -1338.84 1288.87 L -1326.09 1264.32 L -1311.30 1240.02 L -1294.66 1215.99 L -1276.37 1192.29 L -1256.59 1168.92 L -1235.49 1145.92 L -1213.21 1123.30 L -1189.87 1101.08 L -1165.61 1079.25 L -1140.52 1057.84 L -1114.71 1036.84 L -1088.27 1016.25 L -1061.29 996.08 L -1033.83 976.32 L -1005.96 956.98 L -977.74 938.03 L -949.23 919.49 L -920.48 901.33 L -891.53 883.57 L -862.41 866.18 L -833.17 849.17 L -803.84 832.51 L -774.44 816.22 L -744.99 800.26 L -715.53 784.65 L -686.06 769.36 L -656.61 754.39 L -627.18 739.74 L -597.80 725.39 L -568.47 711.33 L -539.21 697.55 L -510.01 684.06 L -480.89 670.83 L -451.85 657.87 L -422.90 645.16 L -394.04 632.70 L -365.27 620.47 L -336.59 608.48 L -308.00 596.71 L -279.51 585.17 L -251.11 573.83 L -222.81 562.70 L -194.59 551.78 L -166.46 541.04 L -138.42 530.50 L -110.47 520.13 L -82.59 509.95 L -54.79 499.94 L -27.07 490.09 L 0.58 480.41 L 28.17 470.89 L 55.70 461.52 L 83.16 452.31 L 110.58 443.23 L 137.95 434.31 L 165.27 425.52 L 192.56 416.86 L 219.81 408.34 L 247.04 399.95 L 274.24 391.68 L 301.42 383.53 L 328.60 375.51 L 355.76 367.60 L 382.93 359.81 L 410.10 352.14 L 437.28 344.57 L 464.48 337.11 L 491.70 329.76 L 518.95 322.52 L 546.24 315.37 L 573.56 308.34 L 600.93 301.40 L 628.36 294.56 L 655.84 287.83 L 683.38 281.19 L 711.00 274.65 L 738.69 268.21 L 766.46 261.87 L 794.32 255.62 L 822.28 249.47 L 850.34 243.42 L 878.51 237.47 L 906.78 231.62 L 935.18 225.87 L 963.70 220.22 L 992.35 214.67 L 1021.14 209.22 L 1050.08 203.89 L 1079.15 198.66 L 1108.39 193.54 L 1137.78 188.54 L 1167.34 183.65 L 1197.06 178.88 L 1226.96 174.24 L 1257.04 169.73 L 1287.30 165.34 L 1317.75 161.10 L 1348.39 156.99 L 1379.22 153.04 L 1410.25 149.24 L 1441.48 145.60 L 1472.90 142.13 L 1504.53 138.84 L 1536.37 135.73 L 1568.40 132.82 L 1600.63 130.12 L 1633.06 127.63 L 1665.68 125.37 L 1698.49 123.35 L 1731.48 121.58 L 1764.64 120.09 L 1797.97 118.88 L 1831.44 117.97 L 1865.06 117.39 L 1898.79 117.14 L 1932.62 117.26 L 1966.52 117.76 L 2000.48 118.67 Z" fill="none" stroke="#262626" stroke-width="0.6" opacity="1"/>
</svg>
