<svg xmlns="http://www.w3.org/2000/svg" width="1080" height="2160" viewBox="0 0 1080 2160">
<path d="M 957.28 428.19 L 960.39 430.30 L 963.11 432.54 L 965.45 434.92 L 967.38 437.43 L 968.90 440.08 L 970.01 442.87 L 970.68 445.79 L 970.92 448.84 L 970.70 452.03 L 970.04 455.36 L 968.91 458.81 L 967.31 462.39 L 965.23 466.10 L 962.67 469.93 L 959.62 473.89 L 956.08 477.97 L 952.04 482.16 L 947.49 486.47 L 942.44 490.89 L 936.89 495.41 L 930.82 500.04 L 924.25 504.76 L 917.18 509.57 L 909.59 514.46 L 901.51 519.44 L 892.92 524.49 L 883.85 529.61 L 874.28 534.79 L 864.24 540.03 L 853.73 545.31 L 842.76 550.63 L 831.34 555.98 L 819.48 561.36 L 807.20 566.75 L 794.52 572.14 L 781.44 577.54 L 767.99 582.92 L 754.18 588.29 L 740.04 593.62 L 725.58 598.92 L 710.83 604.17 L 695.81 609.37 L 680.55 614.50 L 665.06 619.56 L 649.37 624.53 L 633.51 629.41 L 617.51 634.20 L 601.39 638.87 L 585.18 643.43 L 568.90 647.86 L 552.59 652.16 L 536.27 656.32 L 519.97 660.33 L 503.72 664.19 L 487.55 667.89 L 471.48 671.43 L 455.53 674.79 L 439.75 677.98 L 424.14 680.99 L 408.74 683.82 L 393.57 686.46 L 378.66 688.91 L 364.02 691.17 L 349.68 693.23 L 335.65 695.10 L 321.97 696.77 L 308.64 698.24 L 295.68 699.51 L 283.12 700.58 L 270.95 701.46 L 259.21 702.14 L 247.90 702.63 L 237.03 702.93 L 226.61 703.03 L 216.65 702.95 L 207.16 702.68 L 198.14 702.23 L 189.60 701.60 L 181.55 700.80 L 173.99 699.83 L 166.92 698.69 L 160.34 697.39 L 154.25 695.93 L 148.65 694.32 L 143.54 692.56 L 138.92 690.66 L 134.79 688.62 L 131.14 686.44 L 127.96 684.14 L 125.25 681.71 L 123.02 679.17 L 121.24 676.51 L 119.91 673.75 L 119.04 670.88 L 118.60 667.92 L 118.59 664.86 L 119.01 661.72 L 119.84 658.49 L 121.08 655.19 L 122.72 651.81 L 124.75 648.36 L 127.16 644.85 L 129.93 641.28 L 133.07 637.66 L 136.57 633.99 L 140.40 630.26 L 144.57 626.50 L 149.07 622.70 L 153.88 618.86 L 158.99 614.99 L 164.40 611.10 L 170.10 607.18 L 176.08 603.24 L 182.33 599.29 L 188.84 595.32 L 195.59 591.34 L 202.60 587.36 L 209.83 583.37 L 217.29 579.38 L 224.97 575.39 L 232.86 571.41 L 240.95 567.43 L 249.24 563.46 L 257.71 559.50 L 266.35 555.56 L 275.17 551.64 L 284.15 547.73 L 293.29 543.84 L 302.58 539.98 L 312.01 536.14 L 321.57 532.33 L 331.26 528.55 L 341.07 524.80 L 351.00 521.08 L 361.04 517.40 L 371.18 513.75 L 381.42 510.14 L 391.74 506.57 L 402.15 503.05 L 412.64 499.56 L 423.20 496.12 L 433.83 492.73 L 444.52 489.39 L 455.26 486.09 L 466.05 482.85 L 476.89 479.65 L 487.76 476.51 L 498.67 473.43 L 509.60 470.41 L 520.56 467.44 L 531.53 464.53 L 542.51 461.68 L 553.50 458.90 L 564.48 456.18 L 575.46 453.53 L 586.43 450.94 L 597.38 448.42 L 608.31 445.98 L 619.21 443.60 L 630.08 441.30 L 640.90 439.07 L 651.68 436.92 L 662.41 434.85 L 673.08 432.86 L 683.68 430.95 L 694.22 429.12 L 704.67 427.37 L 715.05 425.71 L 725.33 424.14 L 735.52 422.66 L 745.60 421.27 L 755.58 419.97 L 765.43 418.77 L 775.17 417.66 L 784.77 416.65 L 794.23 415.74 L 803.54 414.94 L 812.70 414.23 L 821.69 413.63 L 830.52 413.14 L 839.16 412.75 L 847.62 412.48 L 855.88 412.31 L 863.94 412.26 L 871.78 412.33 L 879.40 412.51 L 886.79 412.81 L 893.93 413.23 L 900.83 413.78 L 907.46 414.44 L 913.82 415.23 L 919.91 416.15 L 925.70 417.20 L 931.19 418.37 L 936.38 419.68 L 941.24 421.11 L 945.77 422.68 L 949.96 424.38 L 953.80 426.22 L 957.28 428.19 Z" fill="none" stroke="#262626" stroke-width="0.6" opacity="1"/>
<path d="M 1165.92 372.29 L 1172.54 374.93 L 1178.64 377.80 L 1184.21 380.88 L 1189.23 384.19 L 1193.68 387.72 L 1197.52 391.47 L 1200.75 395.46 L 1203.34 399.68 L 1205.26 404.13 L 1206.50 408.81 L 1207.03 413.73 L 1206.84 418.89 L 1205.89 424.28 L 1204.18 429.90 L 1201.68 435.76 L 1198.37 441.85 L 1194.23 448.17 L 1189.25 454.71 L 1183.41 461.48 L 1176.69 468.47 L 1169.09 475.67 L 1160.59 483.08 L 1151.17 490.69 L 1140.84 498.49 L 1129.59 506.47 L 1117.40 514.63 L 1104.29 522.95 L 1090.26 531.43 L 1075.30 540.04 L 1059.43 548.79 L 1042.65 557.65 L 1024.99 566.60 L 1006.45 575.64 L 987.05 584.75 L 966.83 593.91 L 945.80 603.09 L 924.00 612.30 L 901.46 621.49 L 878.21 630.66 L 854.30 639.79 L 829.77 648.85 L 804.66 657.83 L 779.02 666.70 L 752.91 675.45 L 726.37 684.05 L 699.47 692.48 L 672.26 700.73 L 644.79 708.78 L 617.14 716.60 L 589.35 724.18 L 561.50 731.51 L 533.64 738.56 L 505.83 745.33 L 478.14 751.79 L 450.62 757.93 L 423.34 763.75 L 396.35 769.24 L 369.72 774.37 L 343.48 779.15 L 317.70 783.57 L 292.43 787.62 L 267.72 791.30 L 243.59 794.61 L 220.11 797.54 L 197.31 800.10 L 175.21 802.28 L 153.86 804.09 L 133.29 805.53 L 113.51 806.61 L 94.55 807.33 L 76.44 807.69 L 59.18 807.71 L 42.78 807.38 L 27.27 806.73 L 12.64 805.76 L -1.10 804.47 L -13.95 802.88 L -25.90 801.00 L -36.97 798.83 L -47.16 796.40 L -56.47 793.71 L -64.91 790.77 L -72.50 787.59 L -79.24 784.18 L -85.15 780.56 L -90.25 776.74 L -94.54 772.73 L -98.05 768.53 L -100.80 764.16 L -102.80 759.64 L -104.07 754.96 L -104.63 750.14 L -104.50 745.20 L -103.69 740.13 L -102.24 734.96 L -100.16 729.68 L -97.46 724.31 L -94.18 718.85 L -90.33 713.32 L -85.92 707.71 L -80.98 702.05 L -75.53 696.33 L -69.59 690.57 L -63.17 684.76 L -56.30 678.92 L -48.98 673.04 L -41.25 667.15 L -33.10 661.23 L -24.57 655.31 L -15.67 649.37 L -6.41 643.44 L 3.19 637.50 L 13.11 631.57 L 23.35 625.64 L 33.89 619.73 L 44.72 613.84 L 55.82 607.96 L 67.18 602.11 L 78.79 596.28 L 90.63 590.48 L 102.70 584.72 L 114.99 578.98 L 127.48 573.28 L 140.17 567.63 L 153.04 562.01 L 166.09 556.43 L 179.31 550.90 L 192.68 545.41 L 206.21 539.97 L 219.88 534.58 L 233.68 529.25 L 247.62 523.96 L 261.67 518.73 L 275.83 513.56 L 290.11 508.44 L 304.48 503.38 L 318.95 498.38 L 333.50 493.44 L 348.14 488.57 L 362.85 483.76 L 377.64 479.01 L 392.49 474.33 L 407.40 469.71 L 422.37 465.17 L 437.39 460.69 L 452.45 456.28 L 467.55 451.95 L 482.68 447.69 L 497.85 443.50 L 513.04 439.39 L 528.25 435.35 L 543.48 431.40 L 558.72 427.52 L 573.97 423.72 L 589.21 420.01 L 604.45 416.38 L 619.69 412.83 L 634.91 409.37 L 650.11 406.00 L 665.29 402.72 L 680.44 399.53 L 695.55 396.43 L 710.63 393.43 L 725.66 390.53 L 740.63 387.72 L 755.55 385.02 L 770.41 382.42 L 785.19 379.92 L 799.90 377.53 L 814.52 375.25 L 829.06 373.08 L 843.49 371.03 L 857.82 369.09 L 872.03 367.27 L 886.12 365.58 L 900.08 364.01 L 913.89 362.57 L 927.56 361.26 L 941.07 360.08 L 954.41 359.04 L 967.56 358.14 L 980.53 357.38 L 993.29 356.77 L 1005.84 356.31 L 1018.17 356.00 L 1030.25 355.85 L 1042.08 355.86 L 1053.64 356.03 L 1064.93 356.37 L 1075.91 356.88 L 1086.59 357.57 L 1096.94 358.44 L 1106.95 359.49 L 1116.59 360.73 L 1125.86 362.16 L 1134.74 363.78 L 1143.20 365.60 L 1151.23 367.62 L 1158.81 369.85 L 1165.92 372.29 Z" fill="none" stroke="#262626" stroke-width="0.6" opacity="1"/>
<path d="M 1374.56 316.38 L 1386.01 319.23 L 1396.88 322.37 L 1407.16 325.82 L 1416.80 329.57 L 1425.77 333.65 L 1434.04 338.05 L 1441.55 342.78 L 1448.28 347.86 L 1454.18 353.29 L 1459.22 359.07 L 1463.35 365.21 L 1466.52 371.72 L 1468.69 378.60 L 1469.83 385.86 L 1469.88 393.51 L 1468.80 401.53 L 1466.54 409.94 L 1463.07 418.74 L 1458.34 427.93 L 1452.31 437.51 L 1444.94 447.46 L 1436.18 457.80 L 1426.01 468.51 L 1414.39 479.59 L 1401.28 491.02 L 1386.67 502.80 L 1370.53 514.91 L 1352.84 527.34 L 1333.59 540.07 L 1312.76 553.07 L 1290.37 566.34 L 1266.40 579.84 L 1240.88 593.56 L 1213.82 607.45 L 1185.25 621.49 L 1155.20 635.65 L 1123.71 649.89 L 1090.83 664.19 L 1056.63 678.49 L 1021.15 692.77 L 984.49 706.97 L 946.71 721.07 L 907.91 735.02 L 868.18 748.78 L 827.63 762.30 L 786.35 775.56 L 744.47 788.49 L 702.10 801.08 L 659.36 813.27 L 616.38 825.04 L 573.26 836.34 L 530.15 847.15 L 487.17 857.44 L 444.43 867.17 L 402.06 876.33 L 360.18 884.90 L 318.89 892.85 L 278.32 900.17 L 238.55 906.85 L 199.69 912.87 L 161.83 918.25 L 125.06 922.97 L 89.44 927.03 L 55.05 930.44 L 21.94 933.20 L -9.82 935.32 L -40.20 936.82 L -69.16 937.71 L -96.67 938.00 L -122.69 937.70 L -147.23 936.85 L -170.27 935.45 L -191.81 933.54 L -211.84 931.12 L -230.38 928.22 L -247.45 924.87 L -263.05 921.09 L -277.22 916.90 L -289.97 912.33 L -301.33 907.39 L -311.34 902.12 L -320.03 896.53 L -327.44 890.64 L -333.60 884.48 L -338.54 878.07 L -342.32 871.43 L -344.97 864.57 L -346.53 857.53 L -347.03 850.30 L -346.53 842.92 L -345.06 835.39 L -342.66 827.74 L -339.37 819.98 L -335.23 812.12 L -330.28 804.18 L -324.55 796.17 L -318.08 788.09 L -310.90 779.97 L -303.05 771.81 L -294.56 763.62 L -285.46 755.41 L -275.79 747.19 L -265.57 738.97 L -254.83 730.75 L -243.60 722.55 L -231.90 714.36 L -219.76 706.20 L -207.20 698.06 L -194.25 689.96 L -180.92 681.90 L -167.24 673.88 L -153.22 665.91 L -138.89 657.98 L -124.27 650.11 L -109.36 642.30 L -94.19 634.55 L -78.77 626.85 L -63.11 619.23 L -47.24 611.66 L -31.15 604.17 L -14.87 596.74 L 1.60 589.38 L 18.24 582.10 L 35.05 574.89 L 52.01 567.75 L 69.12 560.69 L 86.36 553.70 L 103.73 546.80 L 121.22 539.97 L 138.83 533.21 L 156.54 526.54 L 174.36 519.94 L 192.26 513.43 L 210.26 506.99 L 228.34 500.64 L 246.50 494.37 L 264.73 488.18 L 283.03 482.07 L 301.40 476.04 L 319.82 470.09 L 338.30 464.23 L 356.83 458.45 L 375.42 452.76 L 394.04 447.15 L 412.71 441.62 L 431.42 436.18 L 450.17 430.83 L 468.94 425.56 L 487.75 420.38 L 506.58 415.28 L 525.44 410.28 L 544.32 405.36 L 563.21 400.54 L 582.12 395.80 L 601.04 391.16 L 619.97 386.61 L 638.91 382.15 L 657.85 377.79 L 676.79 373.53 L 695.73 369.37 L 714.66 365.30 L 733.57 361.34 L 752.48 357.48 L 771.36 353.73 L 790.22 350.08 L 809.06 346.55 L 827.86 343.12 L 846.63 339.81 L 865.35 336.61 L 884.03 333.54 L 902.65 330.58 L 921.22 327.75 L 939.72 325.05 L 958.14 322.48 L 976.49 320.04 L 994.74 317.74 L 1012.90 315.58 L 1030.96 313.57 L 1048.90 311.70 L 1066.71 309.99 L 1084.39 308.44 L 1101.92 307.05 L 1119.30 305.83 L 1136.50 304.79 L 1153.51 303.91 L 1170.33 303.23 L 1186.93 302.73 L 1203.30 302.43 L 1219.43 302.32 L 1235.28 302.43 L 1250.86 302.75 L 1266.12 303.29 L 1281.07 304.05 L 1295.66 305.05 L 1309.89 306.29 L 1323.72 307.78 L 1337.13 309.53 L 1350.09 311.54 L 1362.58 313.82 L 1374.56 316.38 Z" fill="none" stroke="#262626" stroke-width="0.6" opacity="1"/>
<path d="M 1583.20 260.48 L 1600.81 263.17 L 1617.89 266.24 L 1634.41 269.69 L 1650.32 273.53 L 1665.56 277.78 L 1680.09 282.47 L 1693.86 287.59 L 1706.79 293.18 L 1718.84 299.23 L 1729.94 305.78 L 1740.02 312.84 L 1749.01 320.41 L 1756.83 328.53 L 1763.42 337.20 L 1768.70 346.43 L 1772.57 356.24 L 1774.97 366.65 L 1775.79 377.67 L 1774.97 389.29 L 1772.41 401.54 L 1768.02 414.43 L 1761.71 427.94 L 1753.40 442.09 L 1743.00 456.88 L 1730.43 472.30 L 1715.61 488.34 L 1698.47 505.00 L 1678.93 522.26 L 1656.94 540.09 L 1632.44 558.48 L 1605.38 577.40 L 1575.74 596.81 L 1543.49 616.68 L 1508.63 636.96 L 1471.15 657.60 L 1431.09 678.55 L 1388.48 699.74 L 1343.39 721.13 L 1295.88 742.63 L 1246.05 764.17 L 1194.01 785.68 L 1139.90 807.08 L 1083.87 828.30 L 1026.08 849.23 L 966.72 869.81 L 905.99 889.95 L 844.10 909.57 L 781.27 928.59 L 717.74 946.92 L 653.75 964.51 L 589.53 981.28 L 525.35 997.16 L 461.43 1012.11 L 398.02 1026.06 L 335.35 1038.99 L 273.66 1050.84 L 213.14 1061.61 L 154.01 1071.25 L 96.45 1079.77 L 40.63 1087.16 L -13.30 1093.42 L -65.19 1098.55 L -114.94 1102.58 L -162.43 1105.53 L -207.60 1107.42 L -250.38 1108.28 L -290.71 1108.15 L -328.57 1107.07 L -363.95 1105.08 L -396.84 1102.23 L -427.25 1098.55 L -455.22 1094.10 L -480.76 1088.93 L -503.94 1083.07 L -524.79 1076.59 L -543.39 1069.52 L -559.79 1061.91 L -574.06 1053.81 L -586.28 1045.26 L -596.52 1036.30 L -604.87 1026.97 L -611.40 1017.31 L -616.18 1007.36 L -619.32 997.15 L -620.87 986.71 L -620.92 976.08 L -619.54 965.28 L -616.82 954.34 L -612.83 943.28 L -607.63 932.13 L -601.29 920.91 L -593.88 909.64 L -585.47 898.34 L -576.12 887.02 L -565.87 875.70 L -554.80 864.39 L -542.94 853.11 L -530.36 841.86 L -517.10 830.66 L -503.20 819.52 L -488.71 808.45 L -473.66 797.45 L -458.10 786.53 L -442.06 775.69 L -425.57 764.94 L -408.67 754.29 L -391.39 743.74 L -373.74 733.29 L -355.77 722.95 L -337.48 712.72 L -318.92 702.59 L -300.09 692.58 L -281.01 682.68 L -261.71 672.90 L -242.21 663.23 L -222.50 653.68 L -202.63 644.24 L -182.58 634.92 L -162.39 625.71 L -142.06 616.63 L -121.59 607.65 L -101.01 598.80 L -80.32 590.05 L -59.53 581.42 L -38.64 572.91 L -17.67 564.50 L 3.39 556.21 L 24.51 548.03 L 45.71 539.96 L 66.97 532.00 L 88.29 524.14 L 109.66 516.39 L 131.08 508.75 L 152.56 501.22 L 174.07 493.79 L 195.63 486.46 L 217.23 479.23 L 238.87 472.11 L 260.54 465.09 L 282.25 458.16 L 303.99 451.34 L 325.76 444.62 L 347.56 437.99 L 369.40 431.47 L 391.26 425.04 L 413.15 418.70 L 435.06 412.47 L 457.01 406.33 L 478.98 400.29 L 500.97 394.34 L 522.99 388.49 L 545.04 382.74 L 567.11 377.09 L 589.21 371.53 L 611.33 366.07 L 633.48 360.71 L 655.65 355.44 L 677.84 350.28 L 700.06 345.22 L 722.30 340.25 L 744.56 335.39 L 766.84 330.64 L 789.14 325.99 L 811.46 321.45 L 833.79 317.01 L 856.14 312.69 L 878.51 308.48 L 900.88 304.39 L 923.27 300.41 L 945.66 296.55 L 968.05 292.82 L 990.44 289.21 L 1012.83 285.73 L 1035.20 282.39 L 1057.57 279.18 L 1079.92 276.11 L 1102.24 273.19 L 1124.53 270.41 L 1146.78 267.79 L 1168.99 265.33 L 1191.14 263.04 L 1213.24 260.91 L 1235.25 258.96 L 1257.19 257.19 L 1279.02 255.62 L 1300.75 254.24 L 1322.36 253.06 L 1343.83 252.10 L 1365.14 251.35 L 1386.28 250.83 L 1407.23 250.56 L 1427.97 250.53 L 1448.48 250.75 L 1468.72 251.25 L 1488.68 252.02 L 1508.33 253.08 L 1527.64 254.45 L 1546.58 256.13 L 1565.11 258.13 L 1583.20 260.48 Z" fill="none" stroke="#262626" stroke-width="0.6" opacity="1"/>
<path d="M 1791.84 204.57 L 1816.95 206.77 L 1841.72 209.39 L 1866.09 212.46 L 1890.01 216.00 L 1913.43 220.04 L 1936.29 224.60 L 1958.51 229.70 L 1980.03 235.37 L 2000.77 241.65 L 2020.65 248.56 L 2039.57 256.13 L 2057.45 264.39 L 2074.16 273.38 L 2089.62 283.12 L 2103.69 293.65 L 2116.26 305.01 L 2127.18 317.21 L 2136.33 330.31 L 2143.55 344.31 L 2148.69 359.27 L 2151.60 375.20 L 2152.09 392.14 L 2150.01 410.09 L 2145.18 429.09 L 2137.41 449.16 L 2126.54 470.29 L 2112.38 492.50 L 2094.76 515.78 L 2073.50 540.13 L 2048.45 565.52 L 2019.45 591.94 L 1986.36 619.34 L 1949.07 647.67 L 1907.48 676.88 L 1861.51 706.90 L 1811.11 737.63 L 1756.28 768.99 L 1697.05 800.86 L 1633.47 833.12 L 1565.64 865.64 L 1493.73 898.27 L 1417.93 930.86 L 1338.46 963.25 L 1255.63 995.27 L 1169.76 1026.74 L 1081.22 1057.50 L 990.40 1087.37 L 897.75 1116.19 L 803.73 1143.79 L 708.82 1170.03 L 613.50 1194.76 L 518.27 1217.87 L 423.63 1239.24 L 330.04 1258.77 L 237.98 1276.41 L 147.88 1292.09 L 60.13 1305.78 L -24.87 1317.46 L -106.82 1327.14 L -185.41 1334.84 L -260.41 1340.58 L -331.60 1344.43 L -398.84 1346.45 L -462.00 1346.71 L -521.01 1345.29 L -575.83 1342.28 L -626.46 1337.78 L -672.92 1331.89 L -715.27 1324.70 L -753.59 1316.33 L -787.99 1306.86 L -818.57 1296.40 L -845.47 1285.05 L -868.84 1272.90 L -888.82 1260.03 L -905.58 1246.54 L -919.26 1232.50 L -930.04 1217.99 L -938.08 1203.08 L -943.53 1187.83 L -946.56 1172.31 L -947.31 1156.56 L -945.93 1140.65 L -942.58 1124.62 L -937.37 1108.50 L -930.45 1092.35 L -921.93 1076.18 L -911.95 1060.04 L -900.60 1043.95 L -888.00 1027.93 L -874.24 1012.01 L -859.42 996.20 L -843.62 980.53 L -826.92 965.00 L -809.41 949.62 L -791.14 934.42 L -772.20 919.39 L -752.63 904.54 L -732.49 889.89 L -711.84 875.43 L -690.72 861.17 L -669.19 847.11 L -647.27 833.25 L -625.01 819.60 L -602.45 806.15 L -579.61 792.91 L -556.52 779.87 L -533.22 767.03 L -509.71 754.39 L -486.04 741.96 L -462.21 729.72 L -438.25 717.68 L -414.18 705.82 L -390.00 694.16 L -365.73 682.69 L -341.39 671.40 L -316.99 660.29 L -292.53 649.36 L -268.02 638.60 L -243.48 628.02 L -218.91 617.60 L -194.31 607.35 L -169.69 597.26 L -145.07 587.33 L -120.43 577.56 L -95.78 567.94 L -71.13 558.46 L -46.48 549.14 L -21.83 539.95 L 2.82 530.91 L 27.47 522.01 L 52.11 513.24 L 76.75 504.60 L 101.39 496.10 L 126.02 487.72 L 150.65 479.46 L 175.28 471.33 L 199.91 463.32 L 224.53 455.43 L 249.17 447.66 L 273.80 440.00 L 298.44 432.46 L 323.09 425.02 L 347.75 417.70 L 372.43 410.48 L 397.11 403.37 L 421.81 396.37 L 446.54 389.47 L 471.28 382.68 L 496.05 375.99 L 520.85 369.40 L 545.68 362.91 L 570.54 356.52 L 595.43 350.23 L 620.37 344.05 L 645.34 337.96 L 670.36 331.97 L 695.42 326.09 L 720.53 320.30 L 745.70 314.61 L 770.92 309.03 L 796.19 303.55 L 821.53 298.17 L 846.92 292.90 L 872.38 287.73 L 897.90 282.67 L 923.49 277.72 L 949.14 272.88 L 974.87 268.15 L 1000.67 263.54 L 1026.53 259.05 L 1052.47 254.67 L 1078.49 250.42 L 1104.57 246.30 L 1130.72 242.31 L 1156.95 238.46 L 1183.25 234.74 L 1209.61 231.17 L 1236.03 227.75 L 1262.52 224.49 L 1289.07 221.38 L 1315.67 218.45 L 1342.32 215.68 L 1369.01 213.10 L 1395.73 210.71 L 1422.49 208.51 L 1449.25 206.52 L 1476.03 204.74 L 1502.80 203.19 L 1529.56 201.88 L 1556.28 200.81 L 1582.95 200.00 L 1609.55 199.47 L 1636.06 199.22 L 1662.46 199.27 L 1688.73 199.63 L 1714.83 200.33 L 1740.74 201.37 L 1766.42 202.78 L 1791.84 204.57 Z" fill="none" stroke="#262626" stroke-width="0.6" opacity="1"/>
<path d="M 2000.48 148.67 L 2034.46 150.01 L 2068.42 151.82 L 2102.33 154.11 L 2136.14 156.94 L 2169.80 160.32 L 2203.25 164.29 L 2236.44 168.90 L 2269.29 174.18 L 2301.72 180.19 L 2333.65 186.95 L 2364.97 194.53 L 2395.58 202.98 L 2425.36 212.35 L 2454.17 222.69 L 2481.86 234.08 L 2508.28 246.56 L 2533.24 260.22 L 2556.56 275.10 L 2578.02 291.30 L 2597.39 308.86 L 2614.43 327.87 L 2628.85 348.41 L 2640.39 370.52 L 2648.72 394.30 L 2653.53 419.80 L 2654.47 447.09 L 2651.17 476.22 L 2643.26 507.24 L 2630.36 540.17 L 2612.07 575.06 L 2587.99 611.90 L 2557.75 650.68 L 2520.96 691.37 L 2477.28 733.92 L 2426.36 778.23 L 2367.94 824.21 L 2301.79 871.69 L 2227.74 920.51 L 2145.71 970.44 L 2055.71 1021.24 L 1957.86 1072.62 L 1852.36 1124.28 L 1739.56 1175.86 L 1619.91 1227.01 L 1493.99 1277.33 L 1362.49 1326.44 L 1226.21 1373.95 L 1086.05 1419.46 L 942.99 1462.61 L 798.05 1503.06 L 652.31 1540.50 L 506.83 1574.66 L 362.70 1605.33 L 220.93 1632.32 L 82.49 1655.54 L -51.72 1674.92 L -180.92 1690.45 L -304.40 1702.18 L -421.59 1710.20 L -532.03 1714.62 L -635.37 1715.63 L -731.37 1713.40 L -819.91 1708.14 L -900.94 1700.10 L -974.52 1689.50 L -1040.77 1676.57 L -1099.88 1661.57 L -1152.09 1644.73 L -1197.67 1626.26 L -1236.93 1606.39 L -1270.21 1585.33 L -1297.86 1563.25 L -1320.21 1540.35 L -1337.63 1516.77 L -1350.47 1492.67 L -1359.06 1468.18 L -1363.73 1443.43 L -1364.80 1418.50 L -1362.57 1393.51 L -1357.32 1368.52 L -1349.33 1343.63 L -1338.84 1318.87 L -1326.09 1294.32 L -1311.30 1270.02 L -1294.66 1245.99 L -1276.37 1222.29 L -1256.59 1198.92 L -1235.49 1175.92 L -1213.21 1153.30 L -1189.87 1131.08 L -1165.61 1109.25 L -1140.52 1087.84 L -1114.71 1066.84 L -1088.27 1046.25 L -1061.29 1026.08 L -1033.83 1006.32 L -1005.96 986.98 L -977.74 968.03 L -949.23 949.49 L -920.48 931.33 L -891.53 913.57 L -862.41 896.18 L -833.17 879.17 L -803.84 862.51 L -774.44 846.22 L -744.99 830.26 L -715.53 814.65 L -686.06 799.36 L -656.61 784.39 L -627.18 769.74 L -597.80 755.39 L -568.47 741.33 L -539.21 727.55 L -510.01 714.06 L -480.89 700.83 L -451.85 687.87 L -422.90 675.16 L -394.04 662.70 L -365.27 650.47 L -336.59 638.48 L -308.00 626.71 L -279.51 615.17 L -251.11 603.83 L -222.81 592.70 L -194.59 581.78 L -166.46 571.04 L -138.42 560.50 L -110.47 550.13 L -82.59 539.95 L -54.79 529.94 L -27.07 520.09 L 0.58 510.41 L 28.17 500.89 L 55.70 491.52 L 83.16 482.31 L 110.58 473.23 L 137.95 464.31 L 165.27 455.52 L 192.56 446.86 L 219.81 438.34 L 247.04 429.95 L 274.24 421.68 L 301.42 413.53 L 328.60 405.51 L 355.76 397.60 L 382.93 389.81 L 410.10 382.14 L 437.28 374.57 L 464.48 367.11 L 491.70 359.76 L 518.95 352.52 L 546.24 345.37 L 573.56 338.34 L 600.93 331.40 L 628.36 324.56 L 655.84 317.83 L 683.38 311.19 L 711.00 304.65 L 738.69 298.21 L 766.46 291.87 L 794.32 285.62 L 822.28 279.47 L 850.34 273.42 L 878.51 267.47 L 906.78 261.62 L 935.18 255.87 L 963.70 250.22 L 992.35 244.67 L 1021.14 239.22 L 1050.08 233.89 L 1079.15 228.66 L 1108.39 223.54 L 1137.78 218.54 L 1167.34 213.65 L 1197.06 208.88 L 1226.96 204.24 L 1257.04 199.73 L 1287.30 195.34 L 1317.75 191.10 L 1348.39 186.99 L 1379.22 183.04 L 1410.25 179.24 L 1441.48 175.60 L 1472.90 172.13 L 1504.53 168.84 L 1536.37 165.73 L 1568.40 162.82 L 1600.63 160.12 L 1633.06 157.63 L 1665.68 155.37 L 1698.49 153.35 L 1731.48 151.58 L 1764.64 150.09 L 1797.97 148.88 L 1831.44 147.97 L 1865.06 147.39 L 1898.79 147.14 L 1932.62 147.26 L 1966.52 147.76 L 2000.48 148.67 Z" fill="none" stroke="#262626" stroke-width="0.6" opacity="1"/>
</svg>
