<svg xmlns="http://www.w3.org/2000/svg" width="540" height="1080" viewBox="0 0 540 1080">
<path d="M 478.64 214.10 L 480.31 215.71 L 481.80 217.40 L 483.09 219.17 L 484.18 221.01 L 485.06 222.92 L 485.74 224.90 L 486.20 226.95 L 486.45 229.08 L 486.47 231.27 L 486.26 233.53 L 485.82 235.85 L 485.15 238.24 L 484.25 240.69 L 483.10 243.21 L 481.70 245.78 L 480.06 248.41 L 478.17 251.09 L 476.03 253.83 L 473.64 256.61 L 471.00 259.44 L 468.10 262.31 L 464.95 265.23 L 461.54 268.17 L 457.88 271.16 L 453.97 274.17 L 449.81 277.20 L 445.40 280.26 L 440.75 283.33 L 435.86 286.42 L 430.73 289.51 L 425.37 292.60 L 419.78 295.70 L 413.98 298.79 L 407.96 301.86 L 401.73 304.92 L 395.31 307.96 L 388.70 310.97 L 381.90 313.95 L 374.94 316.90 L 367.81 319.80 L 360.53 322.65 L 353.12 325.45 L 345.57 328.20 L 337.91 330.88 L 330.14 333.50 L 322.29 336.04 L 314.35 338.51 L 306.35 340.90 L 298.30 343.21 L 290.21 345.43 L 282.10 347.55 L 273.97 349.58 L 265.85 351.51 L 257.74 353.34 L 249.66 355.06 L 241.63 356.68 L 233.65 358.19 L 225.75 359.58 L 217.92 360.86 L 210.19 362.03 L 202.57 363.08 L 195.07 364.02 L 187.69 364.83 L 180.46 365.53 L 173.38 366.11 L 166.46 366.57 L 159.70 366.92 L 153.13 367.15 L 146.75 367.26 L 140.56 367.26 L 134.57 367.15 L 128.79 366.92 L 123.23 366.58 L 117.88 366.14 L 112.76 365.59 L 107.87 364.94 L 103.21 364.19 L 98.79 363.34 L 94.60 362.39 L 90.65 361.35 L 86.95 360.22 L 83.48 359.01 L 80.26 357.71 L 77.28 356.33 L 74.55 354.88 L 72.06 353.34 L 69.80 351.74 L 67.79 350.07 L 66.02 348.34 L 64.48 346.54 L 63.17 344.69 L 62.09 342.78 L 61.24 340.82 L 60.61 338.81 L 60.21 336.76 L 60.02 334.66 L 60.05 332.52 L 60.28 330.35 L 60.72 328.14 L 61.36 325.90 L 62.20 323.64 L 63.23 321.35 L 64.45 319.03 L 65.85 316.70 L 67.43 314.35 L 69.19 311.98 L 71.12 309.60 L 73.21 307.21 L 75.46 304.81 L 77.88 302.40 L 80.44 299.99 L 83.15 297.58 L 86.00 295.17 L 89.00 292.76 L 92.12 290.35 L 95.38 287.95 L 98.77 285.55 L 102.27 283.17 L 105.89 280.79 L 109.63 278.43 L 113.47 276.07 L 117.42 273.74 L 121.47 271.42 L 125.62 269.11 L 129.86 266.83 L 134.20 264.56 L 138.61 262.32 L 143.11 260.09 L 147.69 257.89 L 152.35 255.72 L 157.07 253.57 L 161.87 251.45 L 166.73 249.35 L 171.65 247.28 L 176.63 245.25 L 181.66 243.24 L 186.75 241.26 L 191.89 239.32 L 197.07 237.41 L 202.30 235.53 L 207.56 233.69 L 212.87 231.88 L 218.20 230.11 L 223.57 228.38 L 228.97 226.68 L 234.39 225.02 L 239.84 223.40 L 245.30 221.83 L 250.78 220.29 L 256.28 218.79 L 261.79 217.34 L 267.30 215.93 L 272.82 214.56 L 278.35 213.24 L 283.87 211.97 L 289.40 210.74 L 294.91 209.56 L 300.42 208.42 L 305.92 207.33 L 311.40 206.30 L 316.86 205.31 L 322.31 204.37 L 327.73 203.49 L 333.12 202.66 L 338.49 201.88 L 343.82 201.15 L 349.11 200.48 L 354.37 199.87 L 359.58 199.31 L 364.75 198.81 L 369.87 198.36 L 374.93 197.98 L 379.94 197.65 L 384.89 197.39 L 389.77 197.18 L 394.59 197.04 L 399.34 196.96 L 404.00 196.95 L 408.59 197.00 L 413.10 197.11 L 417.52 197.29 L 421.84 197.54 L 426.07 197.85 L 430.20 198.24 L 434.22 198.69 L 438.13 199.21 L 441.93 199.80 L 445.61 200.46 L 449.16 201.19 L 452.59 202.00 L 455.88 202.88 L 459.03 203.83 L 462.04 204.85 L 464.90 205.95 L 467.60 207.12 L 470.15 208.37 L 472.53 209.69 L 474.74 211.08 L 476.78 212.55 L 478.64 214.10 Z" fill="none" stroke="#262626" stroke-width="0.6" opacity="1"/>
<path d="M 582.96 186.14 L 586.43 188.32 L 589.64 190.62 L 592.59 193.05 L 595.26 195.60 L 597.65 198.27 L 599.74 201.07 L 601.52 203.99 L 602.98 207.04 L 604.12 210.21 L 604.91 213.51 L 605.35 216.94 L 605.43 220.49 L 605.14 224.16 L 604.47 227.95 L 603.40 231.85 L 601.94 235.88 L 600.06 240.02 L 597.76 244.27 L 595.04 248.63 L 591.88 253.09 L 588.28 257.65 L 584.23 262.30 L 579.73 267.05 L 574.78 271.88 L 569.36 276.78 L 563.49 281.76 L 557.15 286.79 L 550.35 291.89 L 543.10 297.03 L 535.38 302.21 L 527.22 307.42 L 518.62 312.66 L 509.57 317.90 L 500.10 323.14 L 490.22 328.38 L 479.93 333.60 L 469.26 338.78 L 458.21 343.92 L 446.80 349.01 L 435.07 354.04 L 423.01 358.99 L 410.66 363.85 L 398.05 368.61 L 385.19 373.27 L 372.11 377.80 L 358.83 382.21 L 345.40 386.47 L 331.82 390.58 L 318.14 394.53 L 304.38 398.31 L 290.57 401.92 L 276.75 405.34 L 262.94 408.56 L 249.17 411.59 L 235.47 414.41 L 221.88 417.03 L 208.41 419.43 L 195.11 421.61 L 181.98 423.57 L 169.07 425.31 L 156.39 426.83 L 143.97 428.12 L 131.83 429.19 L 119.99 430.04 L 108.48 430.67 L 97.30 431.08 L 86.47 431.27 L 76.02 431.25 L 65.95 431.02 L 56.28 430.59 L 47.01 429.96 L 38.15 429.13 L 29.72 428.12 L 21.71 426.92 L 14.13 425.55 L 6.99 424.01 L 0.29 422.31 L -5.98 420.45 L -11.81 418.44 L -17.21 416.29 L -22.18 414.01 L -26.72 411.60 L -30.83 409.07 L -34.53 406.42 L -37.81 403.67 L -40.69 400.81 L -43.16 397.87 L -45.25 394.84 L -46.96 391.72 L -48.28 388.54 L -49.25 385.28 L -49.85 381.97 L -50.11 378.59 L -50.03 375.17 L -49.62 371.70 L -48.89 368.20 L -47.85 364.65 L -46.50 361.08 L -44.87 357.48 L -42.96 353.86 L -40.78 350.22 L -38.33 346.57 L -35.63 342.91 L -32.68 339.24 L -29.50 335.57 L -26.09 331.90 L -22.47 328.23 L -18.63 324.57 L -14.59 320.92 L -10.36 317.29 L -5.95 313.66 L -1.35 310.05 L 3.42 306.47 L 8.35 302.90 L 13.44 299.35 L 18.68 295.83 L 24.06 292.34 L 29.58 288.87 L 35.23 285.44 L 41.01 282.03 L 46.91 278.66 L 52.93 275.32 L 59.05 272.01 L 65.28 268.74 L 71.61 265.51 L 78.04 262.31 L 84.55 259.15 L 91.16 256.04 L 97.84 252.96 L 104.60 249.92 L 111.44 246.93 L 118.34 243.98 L 125.32 241.07 L 132.35 238.21 L 139.45 235.39 L 146.60 232.62 L 153.80 229.89 L 161.06 227.21 L 168.36 224.58 L 175.70 221.99 L 183.09 219.45 L 190.51 216.97 L 197.97 214.53 L 205.46 212.14 L 212.98 209.80 L 220.53 207.52 L 228.11 205.28 L 235.70 203.10 L 243.32 200.97 L 250.95 198.90 L 258.60 196.88 L 266.25 194.91 L 273.92 193.00 L 281.60 191.15 L 289.28 189.36 L 296.96 187.62 L 304.64 185.94 L 312.32 184.33 L 320.00 182.77 L 327.66 181.27 L 335.31 179.84 L 342.95 178.47 L 350.58 177.16 L 358.18 175.92 L 365.76 174.75 L 373.31 173.64 L 380.84 172.61 L 388.33 171.64 L 395.79 170.74 L 403.20 169.91 L 410.58 169.16 L 417.90 168.49 L 425.18 167.88 L 432.40 167.36 L 439.56 166.92 L 446.66 166.55 L 453.69 166.27 L 460.65 166.07 L 467.53 165.95 L 474.32 165.93 L 481.03 165.99 L 487.65 166.13 L 494.16 166.38 L 500.57 166.71 L 506.87 167.14 L 513.05 167.66 L 519.10 168.29 L 525.02 169.01 L 530.81 169.84 L 536.44 170.77 L 541.93 171.80 L 547.25 172.95 L 552.40 174.20 L 557.37 175.56 L 562.16 177.03 L 566.75 178.62 L 571.13 180.32 L 575.30 182.15 L 579.25 184.08 L 582.96 186.14 Z" fill="none" stroke="#262626" stroke-width="0.6" opacity="1"/>
<path d="M 687.28 158.19 L 693.19 160.76 L 698.81 163.51 L 704.13 166.44 L 709.14 169.55 L 713.81 172.84 L 718.14 176.32 L 722.09 179.99 L 725.65 183.85 L 728.79 187.91 L 731.51 192.16 L 733.78 196.62 L 735.57 201.28 L 736.87 206.14 L 737.65 211.20 L 737.90 216.47 L 737.58 221.94 L 736.68 227.61 L 735.18 233.48 L 733.06 239.55 L 730.29 245.82 L 726.86 252.27 L 722.75 258.91 L 717.94 265.73 L 712.41 272.72 L 706.15 279.88 L 699.14 287.19 L 691.38 294.64 L 682.86 302.23 L 673.56 309.94 L 663.49 317.76 L 652.64 325.67 L 641.02 333.66 L 628.63 341.70 L 615.48 349.79 L 601.58 357.90 L 586.95 366.02 L 571.61 374.11 L 555.57 382.17 L 538.88 390.16 L 521.55 398.07 L 503.63 405.87 L 485.15 413.55 L 466.16 421.07 L 446.69 428.41 L 426.81 435.56 L 406.55 442.48 L 385.98 449.17 L 365.15 455.59 L 344.12 461.74 L 322.94 467.58 L 301.68 473.11 L 280.39 478.30 L 259.14 483.16 L 237.98 487.65 L 216.98 491.78 L 196.18 495.53 L 175.66 498.91 L 155.45 501.89 L 135.61 504.48 L 116.19 506.69 L 97.23 508.50 L 78.77 509.93 L 60.86 510.97 L 43.52 511.63 L 26.79 511.92 L 10.70 511.84 L -4.73 511.41 L -19.48 510.64 L -33.54 509.53 L -46.89 508.11 L -59.52 506.37 L -71.43 504.34 L -82.61 502.03 L -93.05 499.46 L -102.78 496.63 L -111.78 493.56 L -120.06 490.27 L -127.64 486.77 L -134.52 483.08 L -140.72 479.20 L -146.25 475.16 L -151.12 470.97 L -155.35 466.63 L -158.97 462.17 L -161.98 457.59 L -164.40 452.90 L -166.25 448.13 L -167.56 443.27 L -168.33 438.34 L -168.60 433.35 L -168.37 428.30 L -167.68 423.21 L -166.53 418.09 L -164.94 412.94 L -162.94 407.76 L -160.53 402.57 L -157.75 397.38 L -154.60 392.18 L -151.11 386.99 L -147.28 381.81 L -143.14 376.64 L -138.69 371.49 L -133.96 366.36 L -128.96 361.26 L -123.70 356.19 L -118.19 351.15 L -112.45 346.15 L -106.49 341.18 L -100.31 336.26 L -93.94 331.38 L -87.38 326.55 L -80.64 321.76 L -73.73 317.02 L -66.65 312.33 L -59.43 307.69 L -52.06 303.10 L -44.56 298.57 L -36.93 294.09 L -29.17 289.67 L -21.30 285.30 L -13.33 280.99 L -5.24 276.74 L 2.93 272.55 L 11.20 268.41 L 19.56 264.33 L 28.00 260.31 L 36.52 256.35 L 45.11 252.44 L 53.77 248.60 L 62.50 244.81 L 71.29 241.09 L 80.13 237.42 L 89.03 233.82 L 97.99 230.27 L 106.99 226.79 L 116.04 223.36 L 125.13 219.99 L 134.27 216.69 L 143.44 213.44 L 152.65 210.26 L 161.90 207.13 L 171.18 204.07 L 180.49 201.06 L 189.82 198.12 L 199.19 195.24 L 208.58 192.42 L 217.99 189.66 L 227.43 186.96 L 236.88 184.33 L 246.35 181.75 L 255.85 179.25 L 265.35 176.80 L 274.87 174.42 L 284.40 172.10 L 293.94 169.85 L 303.49 167.66 L 313.05 165.54 L 322.62 163.49 L 332.18 161.50 L 341.75 159.59 L 351.32 157.74 L 360.89 155.96 L 370.45 154.26 L 380.01 152.63 L 389.56 151.07 L 399.10 149.59 L 408.63 148.18 L 418.14 146.85 L 427.64 145.60 L 437.11 144.44 L 446.56 143.35 L 455.98 142.35 L 465.37 141.43 L 474.73 140.61 L 484.05 139.87 L 493.33 139.22 L 502.56 138.67 L 511.74 138.22 L 520.86 137.86 L 529.93 137.60 L 538.93 137.45 L 547.85 137.40 L 556.70 137.46 L 565.47 137.64 L 574.14 137.93 L 582.72 138.33 L 591.18 138.86 L 599.54 139.51 L 607.77 140.28 L 615.87 141.19 L 623.83 142.23 L 631.64 143.41 L 639.28 144.72 L 646.76 146.18 L 654.05 147.79 L 661.14 149.56 L 668.02 151.47 L 674.68 153.55 L 681.11 155.79 L 687.28 158.19 Z" fill="none" stroke="#262626" stroke-width="0.6" opacity="1"/>
<path d="M 791.60 130.24 L 800.60 133.04 L 809.33 136.07 L 817.78 139.33 L 825.92 142.83 L 833.74 146.58 L 841.20 150.59 L 848.27 154.86 L 854.93 159.40 L 861.15 164.22 L 866.89 169.33 L 872.13 174.73 L 876.83 180.42 L 880.95 186.43 L 884.45 192.74 L 887.30 199.37 L 889.46 206.33 L 890.89 213.60 L 891.54 221.21 L 891.38 229.14 L 890.35 237.41 L 888.43 246.00 L 885.56 254.92 L 881.71 264.17 L 876.83 273.73 L 870.88 283.61 L 863.83 293.79 L 855.64 304.25 L 846.28 314.99 L 835.72 325.99 L 823.92 337.23 L 810.88 348.69 L 796.58 360.35 L 781.00 372.17 L 764.14 384.13 L 746.01 396.19 L 726.61 408.32 L 705.97 420.49 L 684.11 432.65 L 661.07 444.77 L 636.89 456.79 L 611.62 468.68 L 585.34 480.39 L 558.10 491.88 L 529.99 503.09 L 501.09 513.99 L 471.50 524.52 L 441.32 534.66 L 410.66 544.34 L 379.61 553.55 L 348.30 562.23 L 316.85 570.37 L 285.36 577.92 L 253.96 584.86 L 222.75 591.18 L 191.86 596.84 L 161.39 601.86 L 131.44 606.20 L 102.10 609.87 L 73.49 612.88 L 45.66 615.21 L 18.71 616.89 L -7.30 617.92 L -32.31 618.31 L -56.27 618.10 L -79.14 617.29 L -100.87 615.91 L -121.45 613.98 L -140.86 611.53 L -159.07 608.59 L -176.09 605.19 L -191.93 601.35 L -206.58 597.10 L -220.06 592.48 L -232.38 587.51 L -243.57 582.23 L -253.66 576.65 L -262.67 570.80 L -270.63 564.72 L -277.57 558.43 L -283.54 551.95 L -288.56 545.30 L -292.66 538.51 L -295.90 531.60 L -298.31 524.59 L -299.91 517.49 L -300.76 510.32 L -300.88 503.10 L -300.32 495.84 L -299.10 488.56 L -297.26 481.26 L -294.84 473.97 L -291.86 466.69 L -288.36 459.42 L -284.37 452.19 L -279.92 444.99 L -275.03 437.83 L -269.73 430.73 L -264.04 423.68 L -257.99 416.69 L -251.60 409.76 L -244.89 402.91 L -237.89 396.12 L -230.60 389.42 L -223.06 382.79 L -215.27 376.24 L -207.26 369.77 L -199.03 363.39 L -190.60 357.09 L -181.99 350.88 L -173.21 344.75 L -164.27 338.71 L -155.17 332.76 L -145.94 326.90 L -136.58 321.12 L -127.10 315.43 L -117.50 309.83 L -107.81 304.32 L -98.01 298.89 L -88.12 293.55 L -78.15 288.29 L -68.10 283.12 L -57.98 278.03 L -47.79 273.03 L -37.54 268.11 L -27.23 263.27 L -16.86 258.51 L -6.44 253.83 L 4.03 249.23 L 14.54 244.71 L 25.09 240.27 L 35.69 235.91 L 46.32 231.62 L 56.98 227.41 L 67.68 223.27 L 78.41 219.21 L 89.17 215.22 L 99.96 211.30 L 110.78 207.46 L 121.62 203.69 L 132.49 199.99 L 143.38 196.36 L 154.29 192.80 L 165.23 189.31 L 176.19 185.89 L 187.16 182.54 L 198.16 179.26 L 209.18 176.05 L 220.22 172.91 L 231.28 169.83 L 242.36 166.83 L 253.45 163.89 L 264.56 161.03 L 275.69 158.23 L 286.84 155.50 L 298.01 152.84 L 309.19 150.25 L 320.39 147.74 L 331.61 145.29 L 342.84 142.91 L 354.08 140.61 L 365.34 138.38 L 376.62 136.23 L 387.91 134.15 L 399.21 132.15 L 410.52 130.22 L 421.85 128.37 L 433.18 126.61 L 444.53 124.92 L 455.88 123.32 L 467.23 121.80 L 478.59 120.37 L 489.96 119.03 L 501.32 117.78 L 512.68 116.62 L 524.04 115.56 L 535.39 114.59 L 546.73 113.73 L 558.06 112.97 L 569.37 112.31 L 580.65 111.76 L 591.92 111.33 L 603.15 111.01 L 614.35 110.82 L 625.50 110.74 L 636.61 110.80 L 647.67 110.98 L 658.67 111.30 L 669.59 111.77 L 680.44 112.37 L 691.21 113.13 L 701.88 114.05 L 712.44 115.12 L 722.89 116.36 L 733.20 117.78 L 743.38 119.37 L 753.40 121.15 L 763.24 123.12 L 772.91 125.28 L 782.36 127.65 L 791.60 130.24 Z" fill="none" stroke="#262626" stroke-width="0.6" opacity="1"/>
<path d="M 895.92 102.29 L 908.66 105.15 L 921.23 108.28 L 933.59 111.70 L 945.72 115.43 L 957.60 119.47 L 969.20 123.83 L 980.47 128.54 L 991.39 133.60 L 1001.91 139.04 L 1012.00 144.86 L 1021.61 151.08 L 1030.69 157.71 L 1039.20 164.78 L 1047.07 172.30 L 1054.25 180.27 L 1060.68 188.73 L 1066.30 197.67 L 1071.03 207.12 L 1074.81 217.08 L 1077.56 227.57 L 1079.21 238.60 L 1079.66 250.17 L 1078.86 262.29 L 1076.70 274.96 L 1073.11 288.19 L 1067.99 301.96 L 1061.28 316.28 L 1052.87 331.12 L 1042.70 346.48 L 1030.69 362.33 L 1016.76 378.65 L 1000.86 395.40 L 982.92 412.54 L 962.91 430.04 L 940.79 447.83 L 916.54 465.86 L 890.15 484.07 L 861.64 502.39 L 831.05 520.73 L 798.41 539.02 L 763.80 557.18 L 727.30 575.11 L 689.04 592.72 L 649.15 609.92 L 607.76 626.61 L 565.07 642.70 L 521.24 658.11 L 476.48 672.74 L 431.01 686.51 L 385.05 699.36 L 338.82 711.22 L 292.55 722.02 L 246.47 731.73 L 200.82 740.30 L 155.79 747.71 L 111.61 753.95 L 68.46 759.01 L 26.52 762.88 L -14.05 765.60 L -53.10 767.19 L -90.51 767.66 L -126.19 767.07 L -160.03 765.47 L -191.99 762.89 L -222.01 759.40 L -250.06 755.05 L -276.14 749.91 L -300.24 744.03 L -322.39 737.47 L -342.61 730.31 L -360.94 722.58 L -377.43 714.37 L -392.13 705.72 L -405.10 696.68 L -416.42 687.31 L -426.14 677.65 L -434.35 667.75 L -441.11 657.66 L -446.49 647.41 L -450.58 637.04 L -453.45 626.58 L -455.16 616.06 L -455.78 605.51 L -455.39 594.96 L -454.05 584.42 L -451.81 573.92 L -448.75 563.48 L -444.92 553.10 L -440.38 542.81 L -435.16 532.62 L -429.34 522.54 L -422.94 512.57 L -416.02 502.73 L -408.61 493.01 L -400.75 483.44 L -392.48 474.00 L -383.83 464.71 L -374.84 455.56 L -365.52 446.56 L -355.92 437.71 L -346.05 429.02 L -335.93 420.47 L -325.60 412.08 L -315.06 403.83 L -304.33 395.74 L -293.44 387.79 L -282.40 379.99 L -271.22 372.33 L -259.92 364.82 L -248.50 357.45 L -236.99 350.22 L -225.38 343.12 L -213.69 336.16 L -201.93 329.34 L -190.11 322.64 L -178.22 316.07 L -166.29 309.63 L -154.30 303.31 L -142.28 297.11 L -130.22 291.03 L -118.13 285.06 L -106.01 279.21 L -93.87 273.47 L -81.70 267.84 L -69.52 262.31 L -57.31 256.89 L -45.09 251.57 L -32.86 246.35 L -20.62 241.24 L -8.36 236.21 L 3.90 231.29 L 16.18 226.45 L 28.46 221.71 L 40.76 217.05 L 53.06 212.49 L 65.37 208.01 L 77.69 203.62 L 90.01 199.30 L 102.35 195.08 L 114.69 190.93 L 127.05 186.86 L 139.42 182.88 L 151.80 178.97 L 164.19 175.13 L 176.59 171.38 L 189.01 167.70 L 201.44 164.09 L 213.89 160.56 L 226.36 157.10 L 238.84 153.72 L 251.35 150.41 L 263.87 147.17 L 276.42 144.00 L 288.99 140.91 L 301.58 137.89 L 314.20 134.94 L 326.85 132.06 L 339.53 129.26 L 352.23 126.53 L 364.96 123.87 L 377.73 121.29 L 390.53 118.78 L 403.36 116.35 L 416.22 114.00 L 429.12 111.72 L 442.06 109.53 L 455.03 107.41 L 468.04 105.38 L 481.09 103.42 L 494.17 101.56 L 507.30 99.78 L 520.46 98.09 L 533.66 96.49 L 546.91 94.99 L 560.18 93.58 L 573.50 92.28 L 586.85 91.07 L 600.24 89.97 L 613.66 88.98 L 627.12 88.10 L 640.60 87.34 L 654.11 86.69 L 667.65 86.18 L 681.21 85.79 L 694.78 85.54 L 708.37 85.42 L 721.97 85.45 L 735.57 85.64 L 749.17 85.98 L 762.76 86.48 L 776.33 87.16 L 789.88 88.01 L 803.39 89.05 L 816.85 90.29 L 830.25 91.72 L 843.59 93.37 L 856.84 95.24 L 869.99 97.35 L 883.02 99.69 L 895.92 102.29 Z" fill="none" stroke="#262626" stroke-width="0.6" opacity="1"/>
<path d="M 1000.24 74.33 L 1017.39 77.08 L 1034.53 80.14 L 1051.62 83.55 L 1068.66 87.31 L 1085.61 91.44 L 1102.44 95.98 L 1119.13 100.93 L 1135.63 106.33 L 1151.91 112.20 L 1167.92 118.56 L 1183.61 125.44 L 1198.93 132.88 L 1213.82 140.89 L 1228.21 149.52 L 1242.03 158.79 L 1255.19 168.73 L 1267.62 179.38 L 1279.21 190.78 L 1289.86 202.94 L 1299.47 215.91 L 1307.91 229.72 L 1315.05 244.41 L 1320.75 259.99 L 1324.87 276.49 L 1327.26 293.95 L 1327.75 312.37 L 1326.17 331.77 L 1322.34 352.16 L 1316.09 373.54 L 1307.24 395.90 L 1295.61 419.22 L 1281.01 443.46 L 1263.29 468.60 L 1242.27 494.56 L 1217.83 521.27 L 1189.83 548.65 L 1158.17 576.59 L 1122.79 604.96 L 1083.66 633.62 L 1040.78 662.42 L 994.22 691.19 L 944.07 719.73 L 890.48 747.85 L 833.68 775.35 L 773.91 802.02 L 711.49 827.65 L 646.77 852.03 L 580.17 874.97 L 512.11 896.29 L 443.05 915.83 L 373.48 933.44 L 303.87 949.00 L 234.72 962.44 L 166.49 973.68 L 99.61 982.70 L 34.52 989.49 L -28.43 994.08 L -88.89 996.51 L -146.60 996.87 L -201.31 995.24 L -252.84 991.74 L -301.06 986.48 L -345.88 979.60 L -387.27 971.23 L -425.21 961.52 L -459.74 950.61 L -490.91 938.63 L -518.83 925.73 L -543.59 912.03 L -565.33 897.65 L -584.17 882.71 L -600.27 867.32 L -613.78 851.58 L -624.85 835.56 L -633.64 819.37 L -640.30 803.06 L -644.98 786.70 L -647.83 770.36 L -648.99 754.07 L -648.59 737.89 L -646.76 721.86 L -643.61 705.99 L -639.27 690.33 L -633.83 674.90 L -627.40 659.70 L -620.07 644.77 L -611.93 630.10 L -603.04 615.72 L -593.49 601.62 L -583.34 587.81 L -572.66 574.29 L -561.50 561.07 L -549.90 548.15 L -537.93 535.51 L -525.62 523.17 L -513.01 511.11 L -500.13 499.34 L -487.03 487.84 L -473.72 476.62 L -460.24 465.67 L -446.61 454.97 L -432.85 444.54 L -418.98 434.35 L -405.02 424.41 L -390.98 414.71 L -376.88 405.23 L -362.74 395.98 L -348.55 386.95 L -334.34 378.14 L -320.11 369.53 L -305.87 361.12 L -291.62 352.90 L -277.38 344.88 L -263.14 337.03 L -248.92 329.37 L -234.71 321.88 L -220.52 314.56 L -206.35 307.39 L -192.21 300.39 L -178.09 293.54 L -164.00 286.84 L -149.94 280.28 L -135.90 273.87 L -121.90 267.59 L -107.92 261.44 L -93.97 255.42 L -80.05 249.53 L -66.16 243.75 L -52.30 238.10 L -38.46 232.56 L -24.64 227.13 L -10.85 221.81 L 2.92 216.60 L 16.68 211.49 L 30.41 206.48 L 44.13 201.57 L 57.83 196.76 L 71.52 192.04 L 85.21 187.42 L 98.88 182.88 L 112.55 178.43 L 126.21 174.07 L 139.88 169.79 L 153.55 165.60 L 167.22 161.48 L 180.90 157.45 L 194.58 153.50 L 208.28 149.63 L 222.00 145.83 L 235.73 142.11 L 249.48 138.47 L 263.26 134.90 L 277.06 131.40 L 290.89 127.98 L 304.75 124.63 L 318.65 121.36 L 332.58 118.16 L 346.56 115.03 L 360.57 111.97 L 374.63 108.99 L 388.74 106.08 L 402.91 103.25 L 417.12 100.49 L 431.40 97.81 L 445.73 95.20 L 460.13 92.67 L 474.60 90.22 L 489.13 87.85 L 503.73 85.56 L 518.41 83.35 L 533.17 81.23 L 548.00 79.19 L 562.92 77.24 L 577.92 75.39 L 593.01 73.63 L 608.19 71.96 L 623.46 70.40 L 638.82 68.94 L 654.28 67.58 L 669.83 66.34 L 685.48 65.22 L 701.23 64.21 L 717.08 63.33 L 733.03 62.57 L 749.08 61.96 L 765.23 61.48 L 781.48 61.16 L 797.83 60.99 L 814.27 60.98 L 830.81 61.14 L 847.44 61.48 L 864.16 62.01 L 880.96 62.74 L 897.83 63.67 L 914.78 64.83 L 931.79 66.21 L 948.85 67.84 L 965.95 69.73 L 983.09 71.89 L 1000.24 74.33 Z" fill="none" stroke="#262626" stroke-width="0.6" opacity="1"/>
</svg>
